<mxfile host="app.diagrams.net" agent="Mozilla/5.0 (Windows NT 10.0; Win64; x64; rv:134.0) Gecko/20100101 Firefox/134.0" version="26.0.10">
  <diagram name="Page-1" id="ZCSE1E2qlDd-GiaLJ-je">
    <mxGraphModel dx="6904" dy="2645" grid="1" gridSize="10" guides="1" tooltips="1" connect="1" arrows="1" fold="1" page="1" pageScale="1" pageWidth="827" pageHeight="1169" math="0" shadow="0">
      <root>
        <mxCell id="0" />
        <mxCell id="1" parent="0" />
        <mxCell id="uVyE1awp81MWE-f0taGV-2" style="edgeStyle=orthogonalEdgeStyle;rounded=0;orthogonalLoop=1;jettySize=auto;html=1;exitX=0.5;exitY=1;exitDx=0;exitDy=0;exitPerimeter=0;entryX=0.5;entryY=0;entryDx=0;entryDy=0;" parent="1" source="uVyE1awp81MWE-f0taGV-1" target="uVyE1awp81MWE-f0taGV-3" edge="1">
          <mxGeometry relative="1" as="geometry">
            <mxPoint x="414" y="180" as="targetPoint" />
          </mxGeometry>
        </mxCell>
        <mxCell id="uVyE1awp81MWE-f0taGV-1" value="Start" style="strokeWidth=2;html=1;shape=mxgraph.flowchart.terminator;whiteSpace=wrap;" parent="1" vertex="1">
          <mxGeometry x="364" y="100" width="100" height="40" as="geometry" />
        </mxCell>
        <mxCell id="uVyE1awp81MWE-f0taGV-4" style="edgeStyle=orthogonalEdgeStyle;rounded=0;orthogonalLoop=1;jettySize=auto;html=1;exitX=0.5;exitY=1;exitDx=0;exitDy=0;entryX=0.5;entryY=0;entryDx=0;entryDy=0;entryPerimeter=0;" parent="1" source="uVyE1awp81MWE-f0taGV-3" target="uVyE1awp81MWE-f0taGV-5" edge="1">
          <mxGeometry relative="1" as="geometry">
            <mxPoint x="414.47058823529414" y="280" as="targetPoint" />
            <Array as="points" />
          </mxGeometry>
        </mxCell>
        <mxCell id="uVyE1awp81MWE-f0taGV-3" value="Enter The&lt;div&gt;&amp;nbsp;Login Page&lt;/div&gt;" style="rounded=1;whiteSpace=wrap;html=1;" parent="1" vertex="1">
          <mxGeometry x="354" y="180" width="120" height="60" as="geometry" />
        </mxCell>
        <mxCell id="uVyE1awp81MWE-f0taGV-7" style="edgeStyle=orthogonalEdgeStyle;rounded=0;orthogonalLoop=1;jettySize=auto;html=1;exitX=0.5;exitY=1;exitDx=0;exitDy=0;exitPerimeter=0;entryX=0.5;entryY=0;entryDx=0;entryDy=0;" parent="1" source="uVyE1awp81MWE-f0taGV-5" target="uVyE1awp81MWE-f0taGV-6" edge="1">
          <mxGeometry relative="1" as="geometry" />
        </mxCell>
        <mxCell id="uVyE1awp81MWE-f0taGV-8" value="No" style="edgeLabel;html=1;align=center;verticalAlign=middle;resizable=0;points=[];" parent="uVyE1awp81MWE-f0taGV-7" vertex="1" connectable="0">
          <mxGeometry x="-0.3267" y="-1" relative="1" as="geometry">
            <mxPoint as="offset" />
          </mxGeometry>
        </mxCell>
        <mxCell id="uVyE1awp81MWE-f0taGV-9" style="edgeStyle=orthogonalEdgeStyle;rounded=0;orthogonalLoop=1;jettySize=auto;html=1;exitX=1;exitY=0.5;exitDx=0;exitDy=0;exitPerimeter=0;entryX=0.5;entryY=0;entryDx=0;entryDy=0;" parent="1" source="uVyE1awp81MWE-f0taGV-5" target="uVyE1awp81MWE-f0taGV-11" edge="1">
          <mxGeometry relative="1" as="geometry">
            <mxPoint x="590" y="400" as="targetPoint" />
          </mxGeometry>
        </mxCell>
        <mxCell id="uVyE1awp81MWE-f0taGV-10" value="Yes" style="edgeLabel;html=1;align=center;verticalAlign=middle;resizable=0;points=[];" parent="uVyE1awp81MWE-f0taGV-9" vertex="1" connectable="0">
          <mxGeometry x="-0.2258" y="3" relative="1" as="geometry">
            <mxPoint as="offset" />
          </mxGeometry>
        </mxCell>
        <mxCell id="uVyE1awp81MWE-f0taGV-5" value="Is User&amp;nbsp;&lt;div&gt;Logged In?&lt;/div&gt;" style="strokeWidth=2;html=1;shape=mxgraph.flowchart.decision;whiteSpace=wrap;" parent="1" vertex="1">
          <mxGeometry x="359" y="270" width="110" height="100" as="geometry" />
        </mxCell>
        <mxCell id="uVyE1awp81MWE-f0taGV-6" value="Enter&amp;nbsp;&lt;div&gt;Credentials&lt;/div&gt;" style="shape=parallelogram;html=1;strokeWidth=2;perimeter=parallelogramPerimeter;whiteSpace=wrap;rounded=1;arcSize=12;size=0.23;" parent="1" vertex="1">
          <mxGeometry x="364" y="420" width="100" height="60" as="geometry" />
        </mxCell>
        <mxCell id="uVyE1awp81MWE-f0taGV-19" style="edgeStyle=orthogonalEdgeStyle;rounded=0;orthogonalLoop=1;jettySize=auto;html=1;exitX=0.5;exitY=1;exitDx=0;exitDy=0;entryX=0.5;entryY=0;entryDx=0;entryDy=0;" parent="1" source="uVyE1awp81MWE-f0taGV-11" target="uVyE1awp81MWE-f0taGV-18" edge="1">
          <mxGeometry relative="1" as="geometry" />
        </mxCell>
        <mxCell id="uVyE1awp81MWE-f0taGV-86" style="edgeStyle=orthogonalEdgeStyle;rounded=0;orthogonalLoop=1;jettySize=auto;html=1;exitX=0.75;exitY=0;exitDx=0;exitDy=0;entryX=0.5;entryY=1;entryDx=0;entryDy=0;" parent="1" source="uVyE1awp81MWE-f0taGV-11" target="uVyE1awp81MWE-f0taGV-88" edge="1">
          <mxGeometry relative="1" as="geometry">
            <mxPoint x="620.3529411764707" y="310" as="targetPoint" />
            <Array as="points">
              <mxPoint x="625" y="410" />
              <mxPoint x="625" y="355" />
              <mxPoint x="625" y="355" />
            </Array>
          </mxGeometry>
        </mxCell>
        <mxCell id="0I5nVtkLHuAJyikSTDQ9-5" style="edgeStyle=orthogonalEdgeStyle;rounded=0;orthogonalLoop=1;jettySize=auto;html=1;exitX=1;exitY=0.25;exitDx=0;exitDy=0;entryX=0;entryY=0.5;entryDx=0;entryDy=0;" edge="1" parent="1" source="uVyE1awp81MWE-f0taGV-11" target="0I5nVtkLHuAJyikSTDQ9-3">
          <mxGeometry relative="1" as="geometry" />
        </mxCell>
        <mxCell id="uVyE1awp81MWE-f0taGV-11" value="Enter Select Tables Page" style="rounded=1;whiteSpace=wrap;html=1;" parent="1" vertex="1">
          <mxGeometry x="530" y="410" width="120" height="60" as="geometry" />
        </mxCell>
        <mxCell id="uVyE1awp81MWE-f0taGV-12" style="edgeStyle=orthogonalEdgeStyle;rounded=0;orthogonalLoop=1;jettySize=auto;html=1;exitX=1;exitY=0.5;exitDx=0;exitDy=0;" parent="1" source="uVyE1awp81MWE-f0taGV-6" edge="1">
          <mxGeometry relative="1" as="geometry">
            <mxPoint x="530" y="450" as="targetPoint" />
          </mxGeometry>
        </mxCell>
        <mxCell id="uVyE1awp81MWE-f0taGV-13" value="Correct&lt;div&gt;Credentials&lt;/div&gt;" style="edgeLabel;html=1;align=center;verticalAlign=middle;resizable=0;points=[];" parent="uVyE1awp81MWE-f0taGV-12" vertex="1" connectable="0">
          <mxGeometry x="-0.438" y="-2" relative="1" as="geometry">
            <mxPoint x="14" as="offset" />
          </mxGeometry>
        </mxCell>
        <mxCell id="uVyE1awp81MWE-f0taGV-15" style="edgeStyle=orthogonalEdgeStyle;rounded=0;orthogonalLoop=1;jettySize=auto;html=1;exitX=0;exitY=0.5;exitDx=0;exitDy=0;entryX=0;entryY=0.5;entryDx=0;entryDy=0;entryPerimeter=0;" parent="1" source="uVyE1awp81MWE-f0taGV-6" target="uVyE1awp81MWE-f0taGV-1" edge="1">
          <mxGeometry relative="1" as="geometry">
            <Array as="points">
              <mxPoint x="290" y="450" />
              <mxPoint x="290" y="120" />
            </Array>
          </mxGeometry>
        </mxCell>
        <mxCell id="uVyE1awp81MWE-f0taGV-16" value="Wrong&lt;div&gt;Credentials&lt;/div&gt;" style="edgeLabel;html=1;align=center;verticalAlign=middle;resizable=0;points=[];" parent="uVyE1awp81MWE-f0taGV-15" vertex="1" connectable="0">
          <mxGeometry x="0.0398" y="-2" relative="1" as="geometry">
            <mxPoint x="-2" as="offset" />
          </mxGeometry>
        </mxCell>
        <mxCell id="uVyE1awp81MWE-f0taGV-20" style="edgeStyle=orthogonalEdgeStyle;rounded=0;orthogonalLoop=1;jettySize=auto;html=1;exitX=0;exitY=0.5;exitDx=0;exitDy=0;entryX=1;entryY=0.5;entryDx=0;entryDy=0;" parent="1" source="uVyE1awp81MWE-f0taGV-18" target="uVyE1awp81MWE-f0taGV-21" edge="1">
          <mxGeometry relative="1" as="geometry">
            <mxPoint x="490" y="550" as="targetPoint" />
          </mxGeometry>
        </mxCell>
        <mxCell id="uVyE1awp81MWE-f0taGV-22" value="Yes" style="edgeLabel;html=1;align=center;verticalAlign=middle;resizable=0;points=[];" parent="uVyE1awp81MWE-f0taGV-20" vertex="1" connectable="0">
          <mxGeometry x="-0.1819" y="2" relative="1" as="geometry">
            <mxPoint x="-2" y="-1" as="offset" />
          </mxGeometry>
        </mxCell>
        <mxCell id="uVyE1awp81MWE-f0taGV-23" style="edgeStyle=orthogonalEdgeStyle;rounded=0;orthogonalLoop=1;jettySize=auto;html=1;exitX=1;exitY=0.5;exitDx=0;exitDy=0;entryX=1;entryY=0.5;entryDx=0;entryDy=0;" parent="1" source="uVyE1awp81MWE-f0taGV-18" target="uVyE1awp81MWE-f0taGV-11" edge="1">
          <mxGeometry relative="1" as="geometry">
            <Array as="points">
              <mxPoint x="790" y="720" />
              <mxPoint x="790" y="550" />
              <mxPoint x="680" y="550" />
              <mxPoint x="680" y="440" />
            </Array>
          </mxGeometry>
        </mxCell>
        <mxCell id="uVyE1awp81MWE-f0taGV-24" value="No" style="edgeLabel;html=1;align=center;verticalAlign=middle;resizable=0;points=[];" parent="uVyE1awp81MWE-f0taGV-23" vertex="1" connectable="0">
          <mxGeometry x="0.1798" y="2" relative="1" as="geometry">
            <mxPoint y="15" as="offset" />
          </mxGeometry>
        </mxCell>
        <mxCell id="uVyE1awp81MWE-f0taGV-18" value="Select Tables To Access" style="rounded=1;whiteSpace=wrap;html=1;" parent="1" vertex="1">
          <mxGeometry x="619.94" y="690" width="120" height="60" as="geometry" />
        </mxCell>
        <mxCell id="uVyE1awp81MWE-f0taGV-25" style="edgeStyle=orthogonalEdgeStyle;rounded=0;orthogonalLoop=1;jettySize=auto;html=1;exitX=0.5;exitY=1;exitDx=0;exitDy=0;entryX=0.5;entryY=0;entryDx=0;entryDy=0;" parent="1" source="uVyE1awp81MWE-f0taGV-21" target="uVyE1awp81MWE-f0taGV-26" edge="1">
          <mxGeometry relative="1" as="geometry">
            <mxPoint x="409" y="630" as="targetPoint" />
          </mxGeometry>
        </mxCell>
        <mxCell id="uVyE1awp81MWE-f0taGV-21" value="Enter Selected&amp;nbsp;&lt;div&gt;Tables Page&lt;/div&gt;" style="rounded=1;whiteSpace=wrap;html=1;" parent="1" vertex="1">
          <mxGeometry x="389" y="690" width="120" height="60" as="geometry" />
        </mxCell>
        <mxCell id="Jv5b99Ny6Am5q-5sL5hU-8" style="edgeStyle=orthogonalEdgeStyle;rounded=0;orthogonalLoop=1;jettySize=auto;html=1;exitX=0.5;exitY=1;exitDx=0;exitDy=0;entryX=0.5;entryY=0;entryDx=0;entryDy=0;" parent="1" source="uVyE1awp81MWE-f0taGV-26" target="Jv5b99Ny6Am5q-5sL5hU-2" edge="1">
          <mxGeometry relative="1" as="geometry" />
        </mxCell>
        <mxCell id="Jv5b99Ny6Am5q-5sL5hU-10" style="edgeStyle=orthogonalEdgeStyle;rounded=0;orthogonalLoop=1;jettySize=auto;html=1;exitX=0.5;exitY=1;exitDx=0;exitDy=0;entryX=0.5;entryY=0;entryDx=0;entryDy=0;" parent="1" source="uVyE1awp81MWE-f0taGV-26" target="Jv5b99Ny6Am5q-5sL5hU-1" edge="1">
          <mxGeometry relative="1" as="geometry" />
        </mxCell>
        <mxCell id="Jv5b99Ny6Am5q-5sL5hU-11" style="edgeStyle=orthogonalEdgeStyle;rounded=0;orthogonalLoop=1;jettySize=auto;html=1;exitX=0.5;exitY=1;exitDx=0;exitDy=0;" parent="1" source="uVyE1awp81MWE-f0taGV-26" target="Jv5b99Ny6Am5q-5sL5hU-7" edge="1">
          <mxGeometry relative="1" as="geometry" />
        </mxCell>
        <mxCell id="Jv5b99Ny6Am5q-5sL5hU-12" style="edgeStyle=orthogonalEdgeStyle;rounded=0;orthogonalLoop=1;jettySize=auto;html=1;exitX=0.5;exitY=1;exitDx=0;exitDy=0;entryX=0.5;entryY=0;entryDx=0;entryDy=0;" parent="1" source="uVyE1awp81MWE-f0taGV-26" target="Jv5b99Ny6Am5q-5sL5hU-4" edge="1">
          <mxGeometry relative="1" as="geometry" />
        </mxCell>
        <mxCell id="Jv5b99Ny6Am5q-5sL5hU-13" style="edgeStyle=orthogonalEdgeStyle;rounded=0;orthogonalLoop=1;jettySize=auto;html=1;exitX=0.5;exitY=1;exitDx=0;exitDy=0;entryX=0.5;entryY=0;entryDx=0;entryDy=0;" parent="1" source="uVyE1awp81MWE-f0taGV-26" target="Jv5b99Ny6Am5q-5sL5hU-6" edge="1">
          <mxGeometry relative="1" as="geometry" />
        </mxCell>
        <mxCell id="Jv5b99Ny6Am5q-5sL5hU-14" style="edgeStyle=orthogonalEdgeStyle;rounded=0;orthogonalLoop=1;jettySize=auto;html=1;exitX=0.5;exitY=1;exitDx=0;exitDy=0;entryX=0.5;entryY=0;entryDx=0;entryDy=0;" parent="1" source="uVyE1awp81MWE-f0taGV-26" target="Jv5b99Ny6Am5q-5sL5hU-5" edge="1">
          <mxGeometry relative="1" as="geometry" />
        </mxCell>
        <mxCell id="uVyE1awp81MWE-f0taGV-26" value="Navigate Between Selected Tables" style="rounded=1;whiteSpace=wrap;html=1;" parent="1" vertex="1">
          <mxGeometry x="389" y="940" width="120" height="60" as="geometry" />
        </mxCell>
        <mxCell id="uVyE1awp81MWE-f0taGV-29" value="View donor Table" style="rounded=1;whiteSpace=wrap;html=1;" parent="1" vertex="1">
          <mxGeometry x="-1590.06" y="1340" width="120" height="60" as="geometry" />
        </mxCell>
        <mxCell id="uVyE1awp81MWE-f0taGV-32" value="Update&amp;nbsp;donor infromation" style="rounded=1;whiteSpace=wrap;html=1;" parent="1" vertex="1">
          <mxGeometry x="-1460.06" y="1340" width="120" height="60" as="geometry" />
        </mxCell>
        <mxCell id="uVyE1awp81MWE-f0taGV-33" value="&lt;div&gt;delete donor&lt;br&gt;&lt;/div&gt;" style="rounded=1;whiteSpace=wrap;html=1;" parent="1" vertex="1">
          <mxGeometry x="-1330.06" y="1340" width="120" height="60" as="geometry" />
        </mxCell>
        <mxCell id="uVyE1awp81MWE-f0taGV-34" value="add new donor " style="rounded=1;whiteSpace=wrap;html=1;" parent="1" vertex="1">
          <mxGeometry x="-1200.06" y="1340" width="120" height="60" as="geometry" />
        </mxCell>
        <mxCell id="uVyE1awp81MWE-f0taGV-57" style="edgeStyle=orthogonalEdgeStyle;rounded=0;orthogonalLoop=1;jettySize=auto;html=1;exitX=0.5;exitY=1;exitDx=0;exitDy=0;exitPerimeter=0;entryX=0.5;entryY=0;entryDx=0;entryDy=0;" parent="1" source="uVyE1awp81MWE-f0taGV-46" target="uVyE1awp81MWE-f0taGV-58" edge="1">
          <mxGeometry relative="1" as="geometry">
            <mxPoint x="-1529.7070588235292" y="1540" as="targetPoint" />
          </mxGeometry>
        </mxCell>
        <mxCell id="uVyE1awp81MWE-f0taGV-63" value="Success" style="edgeLabel;html=1;align=center;verticalAlign=middle;resizable=0;points=[];" parent="uVyE1awp81MWE-f0taGV-57" vertex="1" connectable="0">
          <mxGeometry x="-0.2138" y="1" relative="1" as="geometry">
            <mxPoint as="offset" />
          </mxGeometry>
        </mxCell>
        <mxCell id="uVyE1awp81MWE-f0taGV-64" style="edgeStyle=orthogonalEdgeStyle;rounded=0;orthogonalLoop=1;jettySize=auto;html=1;exitX=0;exitY=0.5;exitDx=0;exitDy=0;exitPerimeter=0;entryX=0;entryY=0.5;entryDx=0;entryDy=0;" parent="1" source="uVyE1awp81MWE-f0taGV-46" target="uVyE1awp81MWE-f0taGV-29" edge="1">
          <mxGeometry relative="1" as="geometry">
            <Array as="points">
              <mxPoint x="-1620.06" y="1475" />
              <mxPoint x="-1620.06" y="1370" />
            </Array>
          </mxGeometry>
        </mxCell>
        <mxCell id="uVyE1awp81MWE-f0taGV-65" value="Not Success" style="edgeLabel;html=1;align=center;verticalAlign=middle;resizable=0;points=[];" parent="uVyE1awp81MWE-f0taGV-64" vertex="1" connectable="0">
          <mxGeometry x="0.1124" relative="1" as="geometry">
            <mxPoint y="9" as="offset" />
          </mxGeometry>
        </mxCell>
        <mxCell id="uVyE1awp81MWE-f0taGV-46" value="Viewed?" style="strokeWidth=2;html=1;shape=mxgraph.flowchart.decision;whiteSpace=wrap;" parent="1" vertex="1">
          <mxGeometry x="-1594.56" y="1440" width="129" height="70" as="geometry" />
        </mxCell>
        <mxCell id="uVyE1awp81MWE-f0taGV-56" style="edgeStyle=orthogonalEdgeStyle;rounded=0;orthogonalLoop=1;jettySize=auto;html=1;exitX=0.5;exitY=1;exitDx=0;exitDy=0;entryX=0.5;entryY=0;entryDx=0;entryDy=0;entryPerimeter=0;" parent="1" source="uVyE1awp81MWE-f0taGV-29" target="uVyE1awp81MWE-f0taGV-46" edge="1">
          <mxGeometry relative="1" as="geometry" />
        </mxCell>
        <mxCell id="uVyE1awp81MWE-f0taGV-58" value="Show Data&amp;nbsp;&lt;div&gt;To User&lt;/div&gt;" style="shape=parallelogram;html=1;strokeWidth=2;perimeter=parallelogramPerimeter;whiteSpace=wrap;rounded=1;arcSize=12;size=0.23;" parent="1" vertex="1">
          <mxGeometry x="-1580.06" y="1550" width="100" height="60" as="geometry" />
        </mxCell>
        <mxCell id="uVyE1awp81MWE-f0taGV-73" style="edgeStyle=orthogonalEdgeStyle;rounded=0;orthogonalLoop=1;jettySize=auto;html=1;exitX=0;exitY=0.5;exitDx=0;exitDy=0;exitPerimeter=0;entryX=0.25;entryY=1;entryDx=0;entryDy=0;" parent="1" source="uVyE1awp81MWE-f0taGV-59" target="uVyE1awp81MWE-f0taGV-32" edge="1">
          <mxGeometry relative="1" as="geometry">
            <Array as="points">
              <mxPoint x="-1460.06" y="1475" />
              <mxPoint x="-1460.06" y="1420" />
              <mxPoint x="-1430.06" y="1420" />
            </Array>
          </mxGeometry>
        </mxCell>
        <mxCell id="uVyE1awp81MWE-f0taGV-74" value="Not Success" style="edgeLabel;html=1;align=center;verticalAlign=middle;resizable=0;points=[];" parent="uVyE1awp81MWE-f0taGV-73" vertex="1" connectable="0">
          <mxGeometry x="-0.4023" y="2" relative="1" as="geometry">
            <mxPoint as="offset" />
          </mxGeometry>
        </mxCell>
        <mxCell id="uVyE1awp81MWE-f0taGV-59" value="Updated?" style="strokeWidth=2;html=1;shape=mxgraph.flowchart.decision;whiteSpace=wrap;" parent="1" vertex="1">
          <mxGeometry x="-1459.06" y="1440" width="129" height="70" as="geometry" />
        </mxCell>
        <mxCell id="uVyE1awp81MWE-f0taGV-60" style="edgeStyle=orthogonalEdgeStyle;rounded=0;orthogonalLoop=1;jettySize=auto;html=1;exitX=0.546;exitY=1;exitDx=0;exitDy=0;entryX=0.5;entryY=0;entryDx=0;entryDy=0;entryPerimeter=0;exitPerimeter=0;" parent="1" source="uVyE1awp81MWE-f0taGV-32" target="uVyE1awp81MWE-f0taGV-59" edge="1">
          <mxGeometry relative="1" as="geometry">
            <mxPoint x="-1400.06" y="1440" as="targetPoint" />
          </mxGeometry>
        </mxCell>
        <mxCell id="uVyE1awp81MWE-f0taGV-61" value="Update Data" style="shape=parallelogram;html=1;strokeWidth=2;perimeter=parallelogramPerimeter;whiteSpace=wrap;rounded=1;arcSize=12;size=0.23;" parent="1" vertex="1">
          <mxGeometry x="-1450.06" y="1550" width="100" height="60" as="geometry" />
        </mxCell>
        <mxCell id="uVyE1awp81MWE-f0taGV-62" style="edgeStyle=orthogonalEdgeStyle;rounded=0;orthogonalLoop=1;jettySize=auto;html=1;exitX=0.5;exitY=1;exitDx=0;exitDy=0;exitPerimeter=0;entryX=0.551;entryY=0.009;entryDx=0;entryDy=0;entryPerimeter=0;" parent="1" source="uVyE1awp81MWE-f0taGV-59" target="uVyE1awp81MWE-f0taGV-61" edge="1">
          <mxGeometry relative="1" as="geometry" />
        </mxCell>
        <mxCell id="uVyE1awp81MWE-f0taGV-66" value="&lt;span style=&quot;caret-color: rgba(0, 0, 0, 0); color: rgba(0, 0, 0, 0); font-family: monospace; font-size: 0px; text-align: start; background-color: rgb(251, 251, 251);&quot;&gt;%3CmxGraphModel%3E%3Croot%3E%3CmxCell%20id%3D%220%22%2F%3E%3CmxCell%20id%3D%221%22%20parent%3D%220%22%2F%3E%3CmxCell%20id%3D%222%22%20value%3D%22Has%20Privileges%3F%22%20style%3D%22edgeLabel%3Bhtml%3D1%3Balign%3Dcenter%3BverticalAlign%3Dmiddle%3Bresizable%3D0%3Bpoints%3D%5B%5D%3B%22%20vertex%3D%221%22%20connectable%3D%220%22%20parent%3D%221%22%3E%3CmxGeometry%20x%3D%22201.0000000000001%22%20y%3D%22905.8620689655172%22%20as%3D%22geometry%22%2F%3E%3C%2FmxCell%3E%3C%2Froot%3E%3C%2FmxGraphModel%3E&lt;/span&gt;" style="edgeLabel;html=1;align=center;verticalAlign=middle;resizable=0;points=[];" parent="uVyE1awp81MWE-f0taGV-62" vertex="1" connectable="0">
          <mxGeometry x="-0.2993" y="3" relative="1" as="geometry">
            <mxPoint as="offset" />
          </mxGeometry>
        </mxCell>
        <mxCell id="uVyE1awp81MWE-f0taGV-67" value="Success" style="edgeLabel;html=1;align=center;verticalAlign=middle;resizable=0;points=[];" parent="uVyE1awp81MWE-f0taGV-62" vertex="1" connectable="0">
          <mxGeometry x="-0.2322" y="-2" relative="1" as="geometry">
            <mxPoint x="4" as="offset" />
          </mxGeometry>
        </mxCell>
        <mxCell id="uVyE1awp81MWE-f0taGV-75" style="edgeStyle=orthogonalEdgeStyle;rounded=0;orthogonalLoop=1;jettySize=auto;html=1;exitX=0;exitY=0.5;exitDx=0;exitDy=0;exitPerimeter=0;entryX=0.25;entryY=1;entryDx=0;entryDy=0;" parent="1" source="uVyE1awp81MWE-f0taGV-68" target="uVyE1awp81MWE-f0taGV-33" edge="1">
          <mxGeometry relative="1" as="geometry">
            <Array as="points">
              <mxPoint x="-1320.06" y="1420" />
              <mxPoint x="-1300.06" y="1420" />
            </Array>
          </mxGeometry>
        </mxCell>
        <mxCell id="uVyE1awp81MWE-f0taGV-76" value="Not Success" style="edgeLabel;html=1;align=center;verticalAlign=middle;resizable=0;points=[];" parent="uVyE1awp81MWE-f0taGV-75" vertex="1" connectable="0">
          <mxGeometry x="-0.4272" y="1" relative="1" as="geometry">
            <mxPoint as="offset" />
          </mxGeometry>
        </mxCell>
        <mxCell id="uVyE1awp81MWE-f0taGV-68" value="Deleted?" style="strokeWidth=2;html=1;shape=mxgraph.flowchart.decision;whiteSpace=wrap;" parent="1" vertex="1">
          <mxGeometry x="-1320.06" y="1440" width="129" height="70" as="geometry" />
        </mxCell>
        <mxCell id="uVyE1awp81MWE-f0taGV-69" style="edgeStyle=orthogonalEdgeStyle;rounded=0;orthogonalLoop=1;jettySize=auto;html=1;exitX=0.5;exitY=1;exitDx=0;exitDy=0;entryX=0.5;entryY=0;entryDx=0;entryDy=0;entryPerimeter=0;" parent="1" source="uVyE1awp81MWE-f0taGV-33" target="uVyE1awp81MWE-f0taGV-68" edge="1">
          <mxGeometry relative="1" as="geometry">
            <Array as="points">
              <mxPoint x="-1255.06" y="1400" />
              <mxPoint x="-1255.06" y="1420" />
            </Array>
          </mxGeometry>
        </mxCell>
        <mxCell id="uVyE1awp81MWE-f0taGV-70" value="Delete Data" style="shape=parallelogram;html=1;strokeWidth=2;perimeter=parallelogramPerimeter;whiteSpace=wrap;rounded=1;arcSize=12;size=0.23;" parent="1" vertex="1">
          <mxGeometry x="-1310.06" y="1550" width="100" height="60" as="geometry" />
        </mxCell>
        <mxCell id="uVyE1awp81MWE-f0taGV-71" style="edgeStyle=orthogonalEdgeStyle;rounded=0;orthogonalLoop=1;jettySize=auto;html=1;exitX=0.5;exitY=1;exitDx=0;exitDy=0;exitPerimeter=0;entryX=0.553;entryY=-0.011;entryDx=0;entryDy=0;entryPerimeter=0;" parent="1" source="uVyE1awp81MWE-f0taGV-68" target="uVyE1awp81MWE-f0taGV-70" edge="1">
          <mxGeometry relative="1" as="geometry" />
        </mxCell>
        <mxCell id="uVyE1awp81MWE-f0taGV-72" value="Success" style="edgeLabel;html=1;align=center;verticalAlign=middle;resizable=0;points=[];" parent="uVyE1awp81MWE-f0taGV-71" vertex="1" connectable="0">
          <mxGeometry x="-0.2028" relative="1" as="geometry">
            <mxPoint as="offset" />
          </mxGeometry>
        </mxCell>
        <mxCell id="uVyE1awp81MWE-f0taGV-83" style="edgeStyle=orthogonalEdgeStyle;rounded=0;orthogonalLoop=1;jettySize=auto;html=1;exitX=0.5;exitY=1;exitDx=0;exitDy=0;exitPerimeter=0;entryX=0.5;entryY=0;entryDx=0;entryDy=0;" parent="1" source="uVyE1awp81MWE-f0taGV-77" target="uVyE1awp81MWE-f0taGV-82" edge="1">
          <mxGeometry relative="1" as="geometry" />
        </mxCell>
        <mxCell id="uVyE1awp81MWE-f0taGV-84" value="Success" style="edgeLabel;html=1;align=center;verticalAlign=middle;resizable=0;points=[];" parent="uVyE1awp81MWE-f0taGV-83" vertex="1" connectable="0">
          <mxGeometry x="-0.0759" relative="1" as="geometry">
            <mxPoint as="offset" />
          </mxGeometry>
        </mxCell>
        <mxCell id="uVyE1awp81MWE-f0taGV-77" value="Inserted" style="strokeWidth=2;html=1;shape=mxgraph.flowchart.decision;whiteSpace=wrap;" parent="1" vertex="1">
          <mxGeometry x="-1180.06" y="1440" width="129" height="70" as="geometry" />
        </mxCell>
        <mxCell id="uVyE1awp81MWE-f0taGV-79" style="edgeStyle=orthogonalEdgeStyle;rounded=0;orthogonalLoop=1;jettySize=auto;html=1;exitX=0.75;exitY=1;exitDx=0;exitDy=0;entryX=0.5;entryY=0;entryDx=0;entryDy=0;entryPerimeter=0;" parent="1" source="uVyE1awp81MWE-f0taGV-34" target="uVyE1awp81MWE-f0taGV-77" edge="1">
          <mxGeometry relative="1" as="geometry">
            <Array as="points">
              <mxPoint x="-1115.06" y="1400" />
              <mxPoint x="-1115.06" y="1420" />
              <mxPoint x="-1115.06" y="1420" />
            </Array>
          </mxGeometry>
        </mxCell>
        <mxCell id="uVyE1awp81MWE-f0taGV-80" style="edgeStyle=orthogonalEdgeStyle;rounded=0;orthogonalLoop=1;jettySize=auto;html=1;exitX=0;exitY=0.5;exitDx=0;exitDy=0;exitPerimeter=0;entryX=0.347;entryY=0.98;entryDx=0;entryDy=0;entryPerimeter=0;" parent="1" source="uVyE1awp81MWE-f0taGV-77" target="uVyE1awp81MWE-f0taGV-34" edge="1">
          <mxGeometry relative="1" as="geometry">
            <Array as="points">
              <mxPoint x="-1180.06" y="1420" />
              <mxPoint x="-1158.06" y="1420" />
            </Array>
          </mxGeometry>
        </mxCell>
        <mxCell id="uVyE1awp81MWE-f0taGV-81" value="Not Success" style="edgeLabel;html=1;align=center;verticalAlign=middle;resizable=0;points=[];" parent="uVyE1awp81MWE-f0taGV-80" vertex="1" connectable="0">
          <mxGeometry x="-0.5" y="1" relative="1" as="geometry">
            <mxPoint y="-6" as="offset" />
          </mxGeometry>
        </mxCell>
        <mxCell id="uVyE1awp81MWE-f0taGV-82" value="Insert Data&lt;div&gt;To Table&lt;/div&gt;" style="shape=parallelogram;html=1;strokeWidth=2;perimeter=parallelogramPerimeter;whiteSpace=wrap;rounded=1;arcSize=12;size=0.23;" parent="1" vertex="1">
          <mxGeometry x="-1165.56" y="1550" width="100" height="60" as="geometry" />
        </mxCell>
        <mxCell id="uVyE1awp81MWE-f0taGV-89" style="edgeStyle=orthogonalEdgeStyle;rounded=0;orthogonalLoop=1;jettySize=auto;html=1;exitX=0.5;exitY=0;exitDx=0;exitDy=0;entryX=0.5;entryY=1;entryDx=0;entryDy=0;entryPerimeter=0;" parent="1" source="uVyE1awp81MWE-f0taGV-88" target="uVyE1awp81MWE-f0taGV-90" edge="1">
          <mxGeometry relative="1" as="geometry">
            <mxPoint x="624.7586206896551" y="170" as="targetPoint" />
          </mxGeometry>
        </mxCell>
        <mxCell id="uVyE1awp81MWE-f0taGV-88" value="Logout" style="rounded=1;whiteSpace=wrap;html=1;" parent="1" vertex="1">
          <mxGeometry x="564.5" y="240" width="120" height="60" as="geometry" />
        </mxCell>
        <mxCell id="uVyE1awp81MWE-f0taGV-90" value="Stop" style="strokeWidth=2;html=1;shape=mxgraph.flowchart.terminator;whiteSpace=wrap;" parent="1" vertex="1">
          <mxGeometry x="574.5" y="100" width="100" height="40" as="geometry" />
        </mxCell>
        <mxCell id="Jv5b99Ny6Am5q-5sL5hU-264" style="edgeStyle=orthogonalEdgeStyle;rounded=0;orthogonalLoop=1;jettySize=auto;html=1;exitX=0.5;exitY=1;exitDx=0;exitDy=0;entryX=0.5;entryY=0;entryDx=0;entryDy=0;" parent="1" source="Jv5b99Ny6Am5q-5sL5hU-1" target="Jv5b99Ny6Am5q-5sL5hU-82" edge="1">
          <mxGeometry relative="1" as="geometry" />
        </mxCell>
        <mxCell id="Jv5b99Ny6Am5q-5sL5hU-265" style="edgeStyle=orthogonalEdgeStyle;rounded=0;orthogonalLoop=1;jettySize=auto;html=1;exitX=0.5;exitY=1;exitDx=0;exitDy=0;entryX=0.5;entryY=0;entryDx=0;entryDy=0;" parent="1" source="Jv5b99Ny6Am5q-5sL5hU-1" target="Jv5b99Ny6Am5q-5sL5hU-83" edge="1">
          <mxGeometry relative="1" as="geometry" />
        </mxCell>
        <mxCell id="Jv5b99Ny6Am5q-5sL5hU-266" style="edgeStyle=orthogonalEdgeStyle;rounded=0;orthogonalLoop=1;jettySize=auto;html=1;exitX=0.5;exitY=1;exitDx=0;exitDy=0;entryX=0.5;entryY=0;entryDx=0;entryDy=0;" parent="1" source="Jv5b99Ny6Am5q-5sL5hU-1" target="Jv5b99Ny6Am5q-5sL5hU-84" edge="1">
          <mxGeometry relative="1" as="geometry" />
        </mxCell>
        <mxCell id="Jv5b99Ny6Am5q-5sL5hU-1" value="communication_history" style="rounded=1;whiteSpace=wrap;html=1;" parent="1" vertex="1">
          <mxGeometry x="-190.06" y="1140" width="160" height="60" as="geometry" />
        </mxCell>
        <mxCell id="Jv5b99Ny6Am5q-5sL5hU-260" style="edgeStyle=orthogonalEdgeStyle;rounded=0;orthogonalLoop=1;jettySize=auto;html=1;exitX=0.5;exitY=1;exitDx=0;exitDy=0;entryX=0.5;entryY=0;entryDx=0;entryDy=0;" parent="1" source="Jv5b99Ny6Am5q-5sL5hU-2" target="Jv5b99Ny6Am5q-5sL5hU-115" edge="1">
          <mxGeometry relative="1" as="geometry" />
        </mxCell>
        <mxCell id="Jv5b99Ny6Am5q-5sL5hU-261" style="edgeStyle=orthogonalEdgeStyle;rounded=0;orthogonalLoop=1;jettySize=auto;html=1;exitX=0.5;exitY=1;exitDx=0;exitDy=0;entryX=0.5;entryY=0;entryDx=0;entryDy=0;" parent="1" source="Jv5b99Ny6Am5q-5sL5hU-2" target="Jv5b99Ny6Am5q-5sL5hU-116" edge="1">
          <mxGeometry relative="1" as="geometry" />
        </mxCell>
        <mxCell id="Jv5b99Ny6Am5q-5sL5hU-262" style="edgeStyle=orthogonalEdgeStyle;rounded=0;orthogonalLoop=1;jettySize=auto;html=1;exitX=0.5;exitY=1;exitDx=0;exitDy=0;entryX=0.5;entryY=0;entryDx=0;entryDy=0;" parent="1" source="Jv5b99Ny6Am5q-5sL5hU-2" target="Jv5b99Ny6Am5q-5sL5hU-117" edge="1">
          <mxGeometry relative="1" as="geometry" />
        </mxCell>
        <mxCell id="Jv5b99Ny6Am5q-5sL5hU-263" style="edgeStyle=orthogonalEdgeStyle;rounded=0;orthogonalLoop=1;jettySize=auto;html=1;exitX=0.5;exitY=1;exitDx=0;exitDy=0;entryX=0.5;entryY=0;entryDx=0;entryDy=0;" parent="1" source="Jv5b99Ny6Am5q-5sL5hU-2" target="Jv5b99Ny6Am5q-5sL5hU-118" edge="1">
          <mxGeometry relative="1" as="geometry" />
        </mxCell>
        <mxCell id="Jv5b99Ny6Am5q-5sL5hU-2" value="donation" style="rounded=1;whiteSpace=wrap;html=1;" parent="1" vertex="1">
          <mxGeometry x="419.94" y="1130" width="160" height="60" as="geometry" />
        </mxCell>
        <mxCell id="Jv5b99Ny6Am5q-5sL5hU-256" style="edgeStyle=orthogonalEdgeStyle;rounded=0;orthogonalLoop=1;jettySize=auto;html=1;exitX=0.5;exitY=1;exitDx=0;exitDy=0;entryX=0.5;entryY=0;entryDx=0;entryDy=0;" parent="1" source="Jv5b99Ny6Am5q-5sL5hU-3" target="Jv5b99Ny6Am5q-5sL5hU-148" edge="1">
          <mxGeometry relative="1" as="geometry" />
        </mxCell>
        <mxCell id="Jv5b99Ny6Am5q-5sL5hU-257" style="edgeStyle=orthogonalEdgeStyle;rounded=0;orthogonalLoop=1;jettySize=auto;html=1;exitX=0.5;exitY=1;exitDx=0;exitDy=0;entryX=0.5;entryY=0;entryDx=0;entryDy=0;" parent="1" source="Jv5b99Ny6Am5q-5sL5hU-3" target="Jv5b99Ny6Am5q-5sL5hU-149" edge="1">
          <mxGeometry relative="1" as="geometry" />
        </mxCell>
        <mxCell id="Jv5b99Ny6Am5q-5sL5hU-258" style="edgeStyle=orthogonalEdgeStyle;rounded=0;orthogonalLoop=1;jettySize=auto;html=1;exitX=0.5;exitY=1;exitDx=0;exitDy=0;entryX=0.5;entryY=0;entryDx=0;entryDy=0;" parent="1" source="Jv5b99Ny6Am5q-5sL5hU-3" target="Jv5b99Ny6Am5q-5sL5hU-150" edge="1">
          <mxGeometry relative="1" as="geometry" />
        </mxCell>
        <mxCell id="Jv5b99Ny6Am5q-5sL5hU-259" style="edgeStyle=orthogonalEdgeStyle;rounded=0;orthogonalLoop=1;jettySize=auto;html=1;exitX=0.5;exitY=1;exitDx=0;exitDy=0;entryX=0.5;entryY=0;entryDx=0;entryDy=0;" parent="1" source="Jv5b99Ny6Am5q-5sL5hU-3" target="Jv5b99Ny6Am5q-5sL5hU-151" edge="1">
          <mxGeometry relative="1" as="geometry" />
        </mxCell>
        <mxCell id="Jv5b99Ny6Am5q-5sL5hU-3" value="donation_event" style="rounded=1;whiteSpace=wrap;html=1;" parent="1" vertex="1">
          <mxGeometry x="1121" y="1100" width="160" height="60" as="geometry" />
        </mxCell>
        <mxCell id="Jv5b99Ny6Am5q-5sL5hU-272" style="edgeStyle=orthogonalEdgeStyle;rounded=0;orthogonalLoop=1;jettySize=auto;html=1;exitX=0.5;exitY=1;exitDx=0;exitDy=0;entryX=0.5;entryY=0;entryDx=0;entryDy=0;" parent="1" source="Jv5b99Ny6Am5q-5sL5hU-4" target="uVyE1awp81MWE-f0taGV-29" edge="1">
          <mxGeometry relative="1" as="geometry" />
        </mxCell>
        <mxCell id="Jv5b99Ny6Am5q-5sL5hU-273" style="edgeStyle=orthogonalEdgeStyle;rounded=0;orthogonalLoop=1;jettySize=auto;html=1;exitX=0.5;exitY=1;exitDx=0;exitDy=0;entryX=0.5;entryY=0;entryDx=0;entryDy=0;" parent="1" source="Jv5b99Ny6Am5q-5sL5hU-4" target="uVyE1awp81MWE-f0taGV-32" edge="1">
          <mxGeometry relative="1" as="geometry" />
        </mxCell>
        <mxCell id="Jv5b99Ny6Am5q-5sL5hU-274" style="edgeStyle=orthogonalEdgeStyle;rounded=0;orthogonalLoop=1;jettySize=auto;html=1;exitX=0.5;exitY=1;exitDx=0;exitDy=0;entryX=0.5;entryY=0;entryDx=0;entryDy=0;" parent="1" source="Jv5b99Ny6Am5q-5sL5hU-4" target="uVyE1awp81MWE-f0taGV-33" edge="1">
          <mxGeometry relative="1" as="geometry" />
        </mxCell>
        <mxCell id="Jv5b99Ny6Am5q-5sL5hU-275" style="edgeStyle=orthogonalEdgeStyle;rounded=0;orthogonalLoop=1;jettySize=auto;html=1;exitX=0.5;exitY=1;exitDx=0;exitDy=0;entryX=0.5;entryY=0;entryDx=0;entryDy=0;" parent="1" source="Jv5b99Ny6Am5q-5sL5hU-4" target="uVyE1awp81MWE-f0taGV-34" edge="1">
          <mxGeometry relative="1" as="geometry" />
        </mxCell>
        <mxCell id="Jv5b99Ny6Am5q-5sL5hU-4" value="donor" style="rounded=1;whiteSpace=wrap;html=1;" parent="1" vertex="1">
          <mxGeometry x="-1450.06" y="1110" width="160" height="60" as="geometry" />
        </mxCell>
        <mxCell id="Jv5b99Ny6Am5q-5sL5hU-248" style="edgeStyle=orthogonalEdgeStyle;rounded=0;orthogonalLoop=1;jettySize=auto;html=1;exitX=0.5;exitY=1;exitDx=0;exitDy=0;entryX=0.5;entryY=0;entryDx=0;entryDy=0;" parent="1" source="Jv5b99Ny6Am5q-5sL5hU-5" target="Jv5b99Ny6Am5q-5sL5hU-214" edge="1">
          <mxGeometry relative="1" as="geometry" />
        </mxCell>
        <mxCell id="Jv5b99Ny6Am5q-5sL5hU-250" style="edgeStyle=orthogonalEdgeStyle;rounded=0;orthogonalLoop=1;jettySize=auto;html=1;exitX=0.5;exitY=1;exitDx=0;exitDy=0;entryX=0.5;entryY=0;entryDx=0;entryDy=0;" parent="1" source="Jv5b99Ny6Am5q-5sL5hU-5" target="Jv5b99Ny6Am5q-5sL5hU-216" edge="1">
          <mxGeometry relative="1" as="geometry" />
        </mxCell>
        <mxCell id="Jv5b99Ny6Am5q-5sL5hU-251" style="edgeStyle=orthogonalEdgeStyle;rounded=0;orthogonalLoop=1;jettySize=auto;html=1;exitX=0.5;exitY=1;exitDx=0;exitDy=0;entryX=0.5;entryY=0;entryDx=0;entryDy=0;" parent="1" source="Jv5b99Ny6Am5q-5sL5hU-5" target="Jv5b99Ny6Am5q-5sL5hU-217" edge="1">
          <mxGeometry relative="1" as="geometry" />
        </mxCell>
        <mxCell id="Jv5b99Ny6Am5q-5sL5hU-5" value="donor_event" style="rounded=1;whiteSpace=wrap;html=1;" parent="1" vertex="1">
          <mxGeometry x="2361" y="1150" width="160" height="60" as="geometry" />
        </mxCell>
        <mxCell id="Jv5b99Ny6Am5q-5sL5hU-252" style="edgeStyle=orthogonalEdgeStyle;rounded=0;orthogonalLoop=1;jettySize=auto;html=1;exitX=0.5;exitY=1;exitDx=0;exitDy=0;entryX=0.5;entryY=0;entryDx=0;entryDy=0;" parent="1" source="Jv5b99Ny6Am5q-5sL5hU-6" target="Jv5b99Ny6Am5q-5sL5hU-184" edge="1">
          <mxGeometry relative="1" as="geometry" />
        </mxCell>
        <mxCell id="Jv5b99Ny6Am5q-5sL5hU-253" style="edgeStyle=orthogonalEdgeStyle;rounded=0;orthogonalLoop=1;jettySize=auto;html=1;exitX=0.5;exitY=1;exitDx=0;exitDy=0;entryX=0.5;entryY=0;entryDx=0;entryDy=0;" parent="1" source="Jv5b99Ny6Am5q-5sL5hU-6" target="Jv5b99Ny6Am5q-5sL5hU-182" edge="1">
          <mxGeometry relative="1" as="geometry" />
        </mxCell>
        <mxCell id="Jv5b99Ny6Am5q-5sL5hU-254" style="edgeStyle=orthogonalEdgeStyle;rounded=0;orthogonalLoop=1;jettySize=auto;html=1;exitX=0.5;exitY=1;exitDx=0;exitDy=0;entryX=0.5;entryY=0;entryDx=0;entryDy=0;" parent="1" source="Jv5b99Ny6Am5q-5sL5hU-6" target="Jv5b99Ny6Am5q-5sL5hU-181" edge="1">
          <mxGeometry relative="1" as="geometry" />
        </mxCell>
        <mxCell id="Jv5b99Ny6Am5q-5sL5hU-255" style="edgeStyle=orthogonalEdgeStyle;rounded=0;orthogonalLoop=1;jettySize=auto;html=1;exitX=0.5;exitY=1;exitDx=0;exitDy=0;entryX=0.5;entryY=0;entryDx=0;entryDy=0;" parent="1" source="Jv5b99Ny6Am5q-5sL5hU-6" target="Jv5b99Ny6Am5q-5sL5hU-183" edge="1">
          <mxGeometry relative="1" as="geometry" />
        </mxCell>
        <mxCell id="Jv5b99Ny6Am5q-5sL5hU-6" value="donor_phone" style="rounded=1;whiteSpace=wrap;html=1;" parent="1" vertex="1">
          <mxGeometry x="1790" y="1140" width="160" height="60" as="geometry" />
        </mxCell>
        <mxCell id="Jv5b99Ny6Am5q-5sL5hU-269" style="edgeStyle=orthogonalEdgeStyle;rounded=0;orthogonalLoop=1;jettySize=auto;html=1;exitX=0.5;exitY=1;exitDx=0;exitDy=0;entryX=0.5;entryY=0;entryDx=0;entryDy=0;" parent="1" source="Jv5b99Ny6Am5q-5sL5hU-7" target="Jv5b99Ny6Am5q-5sL5hU-17" edge="1">
          <mxGeometry relative="1" as="geometry" />
        </mxCell>
        <mxCell id="Jv5b99Ny6Am5q-5sL5hU-270" style="edgeStyle=orthogonalEdgeStyle;rounded=0;orthogonalLoop=1;jettySize=auto;html=1;exitX=0.5;exitY=1;exitDx=0;exitDy=0;entryX=0.5;entryY=0;entryDx=0;entryDy=0;" parent="1" source="Jv5b99Ny6Am5q-5sL5hU-7" target="Jv5b99Ny6Am5q-5sL5hU-18" edge="1">
          <mxGeometry relative="1" as="geometry" />
        </mxCell>
        <mxCell id="Jv5b99Ny6Am5q-5sL5hU-271" style="edgeStyle=orthogonalEdgeStyle;rounded=0;orthogonalLoop=1;jettySize=auto;html=1;exitX=0.5;exitY=1;exitDx=0;exitDy=0;entryX=0.5;entryY=0;entryDx=0;entryDy=0;" parent="1" source="Jv5b99Ny6Am5q-5sL5hU-7" target="Jv5b99Ny6Am5q-5sL5hU-19" edge="1">
          <mxGeometry relative="1" as="geometry" />
        </mxCell>
        <mxCell id="Jv5b99Ny6Am5q-5sL5hU-7" value="event" style="rounded=1;whiteSpace=wrap;html=1;" parent="1" vertex="1">
          <mxGeometry x="-800" y="1140" width="160" height="60" as="geometry" />
        </mxCell>
        <mxCell id="Jv5b99Ny6Am5q-5sL5hU-9" style="edgeStyle=orthogonalEdgeStyle;rounded=0;orthogonalLoop=1;jettySize=auto;html=1;exitX=0.5;exitY=1;exitDx=0;exitDy=0;entryX=0.434;entryY=0.089;entryDx=0;entryDy=0;entryPerimeter=0;" parent="1" source="uVyE1awp81MWE-f0taGV-26" target="Jv5b99Ny6Am5q-5sL5hU-3" edge="1">
          <mxGeometry relative="1" as="geometry" />
        </mxCell>
        <mxCell id="Jv5b99Ny6Am5q-5sL5hU-16" value="View&amp;nbsp;event Table" style="rounded=1;whiteSpace=wrap;html=1;" parent="1" vertex="1">
          <mxGeometry x="-970.06" y="1350" width="120" height="60" as="geometry" />
        </mxCell>
        <mxCell id="Jv5b99Ny6Am5q-5sL5hU-17" value="update events informations" style="rounded=1;whiteSpace=wrap;html=1;" parent="1" vertex="1">
          <mxGeometry x="-840.06" y="1350" width="120" height="60" as="geometry" />
        </mxCell>
        <mxCell id="Jv5b99Ny6Am5q-5sL5hU-18" value="delete an event" style="rounded=1;whiteSpace=wrap;html=1;" parent="1" vertex="1">
          <mxGeometry x="-710.06" y="1350" width="120" height="60" as="geometry" />
        </mxCell>
        <mxCell id="Jv5b99Ny6Am5q-5sL5hU-19" value="add new event " style="rounded=1;whiteSpace=wrap;html=1;" parent="1" vertex="1">
          <mxGeometry x="-580.0600000000001" y="1350" width="120" height="60" as="geometry" />
        </mxCell>
        <mxCell id="Jv5b99Ny6Am5q-5sL5hU-20" style="edgeStyle=orthogonalEdgeStyle;rounded=0;orthogonalLoop=1;jettySize=auto;html=1;exitX=0.5;exitY=1;exitDx=0;exitDy=0;exitPerimeter=0;entryX=0.5;entryY=0;entryDx=0;entryDy=0;" parent="1" source="Jv5b99Ny6Am5q-5sL5hU-24" target="Jv5b99Ny6Am5q-5sL5hU-26" edge="1">
          <mxGeometry relative="1" as="geometry">
            <mxPoint x="-909.7070588235292" y="1550" as="targetPoint" />
          </mxGeometry>
        </mxCell>
        <mxCell id="Jv5b99Ny6Am5q-5sL5hU-21" value="Success" style="edgeLabel;html=1;align=center;verticalAlign=middle;resizable=0;points=[];" parent="Jv5b99Ny6Am5q-5sL5hU-20" vertex="1" connectable="0">
          <mxGeometry x="-0.2138" y="1" relative="1" as="geometry">
            <mxPoint as="offset" />
          </mxGeometry>
        </mxCell>
        <mxCell id="Jv5b99Ny6Am5q-5sL5hU-22" style="edgeStyle=orthogonalEdgeStyle;rounded=0;orthogonalLoop=1;jettySize=auto;html=1;exitX=0;exitY=0.5;exitDx=0;exitDy=0;exitPerimeter=0;entryX=0;entryY=0.5;entryDx=0;entryDy=0;" parent="1" source="Jv5b99Ny6Am5q-5sL5hU-24" target="Jv5b99Ny6Am5q-5sL5hU-16" edge="1">
          <mxGeometry relative="1" as="geometry">
            <Array as="points">
              <mxPoint x="-1000.06" y="1485" />
              <mxPoint x="-1000.06" y="1380" />
            </Array>
          </mxGeometry>
        </mxCell>
        <mxCell id="Jv5b99Ny6Am5q-5sL5hU-23" value="Not Success" style="edgeLabel;html=1;align=center;verticalAlign=middle;resizable=0;points=[];" parent="Jv5b99Ny6Am5q-5sL5hU-22" vertex="1" connectable="0">
          <mxGeometry x="0.1124" relative="1" as="geometry">
            <mxPoint y="9" as="offset" />
          </mxGeometry>
        </mxCell>
        <mxCell id="Jv5b99Ny6Am5q-5sL5hU-24" value="Viewed?" style="strokeWidth=2;html=1;shape=mxgraph.flowchart.decision;whiteSpace=wrap;" parent="1" vertex="1">
          <mxGeometry x="-974.56" y="1450" width="129" height="70" as="geometry" />
        </mxCell>
        <mxCell id="Jv5b99Ny6Am5q-5sL5hU-25" style="edgeStyle=orthogonalEdgeStyle;rounded=0;orthogonalLoop=1;jettySize=auto;html=1;exitX=0.5;exitY=1;exitDx=0;exitDy=0;entryX=0.5;entryY=0;entryDx=0;entryDy=0;entryPerimeter=0;" parent="1" source="Jv5b99Ny6Am5q-5sL5hU-16" target="Jv5b99Ny6Am5q-5sL5hU-24" edge="1">
          <mxGeometry relative="1" as="geometry" />
        </mxCell>
        <mxCell id="Jv5b99Ny6Am5q-5sL5hU-26" value="Show Data&amp;nbsp;&lt;div&gt;To User&lt;/div&gt;" style="shape=parallelogram;html=1;strokeWidth=2;perimeter=parallelogramPerimeter;whiteSpace=wrap;rounded=1;arcSize=12;size=0.23;" parent="1" vertex="1">
          <mxGeometry x="-960.06" y="1560" width="100" height="60" as="geometry" />
        </mxCell>
        <mxCell id="Jv5b99Ny6Am5q-5sL5hU-27" style="edgeStyle=orthogonalEdgeStyle;rounded=0;orthogonalLoop=1;jettySize=auto;html=1;exitX=0;exitY=0.5;exitDx=0;exitDy=0;exitPerimeter=0;entryX=0.25;entryY=1;entryDx=0;entryDy=0;" parent="1" source="Jv5b99Ny6Am5q-5sL5hU-29" target="Jv5b99Ny6Am5q-5sL5hU-17" edge="1">
          <mxGeometry relative="1" as="geometry">
            <Array as="points">
              <mxPoint x="-840.06" y="1485" />
              <mxPoint x="-840.06" y="1430" />
              <mxPoint x="-810.06" y="1430" />
            </Array>
          </mxGeometry>
        </mxCell>
        <mxCell id="Jv5b99Ny6Am5q-5sL5hU-28" value="Not Success" style="edgeLabel;html=1;align=center;verticalAlign=middle;resizable=0;points=[];" parent="Jv5b99Ny6Am5q-5sL5hU-27" vertex="1" connectable="0">
          <mxGeometry x="-0.4023" y="2" relative="1" as="geometry">
            <mxPoint as="offset" />
          </mxGeometry>
        </mxCell>
        <mxCell id="Jv5b99Ny6Am5q-5sL5hU-29" value="Updated?" style="strokeWidth=2;html=1;shape=mxgraph.flowchart.decision;whiteSpace=wrap;" parent="1" vertex="1">
          <mxGeometry x="-839.06" y="1450" width="129" height="70" as="geometry" />
        </mxCell>
        <mxCell id="Jv5b99Ny6Am5q-5sL5hU-30" style="edgeStyle=orthogonalEdgeStyle;rounded=0;orthogonalLoop=1;jettySize=auto;html=1;exitX=0.546;exitY=1;exitDx=0;exitDy=0;entryX=0.5;entryY=0;entryDx=0;entryDy=0;entryPerimeter=0;exitPerimeter=0;" parent="1" source="Jv5b99Ny6Am5q-5sL5hU-17" target="Jv5b99Ny6Am5q-5sL5hU-29" edge="1">
          <mxGeometry relative="1" as="geometry">
            <mxPoint x="-780.06" y="1450" as="targetPoint" />
          </mxGeometry>
        </mxCell>
        <mxCell id="Jv5b99Ny6Am5q-5sL5hU-31" value="Update Data" style="shape=parallelogram;html=1;strokeWidth=2;perimeter=parallelogramPerimeter;whiteSpace=wrap;rounded=1;arcSize=12;size=0.23;" parent="1" vertex="1">
          <mxGeometry x="-830.06" y="1560" width="100" height="60" as="geometry" />
        </mxCell>
        <mxCell id="Jv5b99Ny6Am5q-5sL5hU-32" style="edgeStyle=orthogonalEdgeStyle;rounded=0;orthogonalLoop=1;jettySize=auto;html=1;exitX=0.5;exitY=1;exitDx=0;exitDy=0;exitPerimeter=0;entryX=0.551;entryY=0.009;entryDx=0;entryDy=0;entryPerimeter=0;" parent="1" source="Jv5b99Ny6Am5q-5sL5hU-29" target="Jv5b99Ny6Am5q-5sL5hU-31" edge="1">
          <mxGeometry relative="1" as="geometry" />
        </mxCell>
        <mxCell id="Jv5b99Ny6Am5q-5sL5hU-33" value="&lt;span style=&quot;caret-color: rgba(0, 0, 0, 0); color: rgba(0, 0, 0, 0); font-family: monospace; font-size: 0px; text-align: start; background-color: rgb(251, 251, 251);&quot;&gt;%3CmxGraphModel%3E%3Croot%3E%3CmxCell%20id%3D%220%22%2F%3E%3CmxCell%20id%3D%221%22%20parent%3D%220%22%2F%3E%3CmxCell%20id%3D%222%22%20value%3D%22Has%20Privileges%3F%22%20style%3D%22edgeLabel%3Bhtml%3D1%3Balign%3Dcenter%3BverticalAlign%3Dmiddle%3Bresizable%3D0%3Bpoints%3D%5B%5D%3B%22%20vertex%3D%221%22%20connectable%3D%220%22%20parent%3D%221%22%3E%3CmxGeometry%20x%3D%22201.0000000000001%22%20y%3D%22905.8620689655172%22%20as%3D%22geometry%22%2F%3E%3C%2FmxCell%3E%3C%2Froot%3E%3C%2FmxGraphModel%3E&lt;/span&gt;" style="edgeLabel;html=1;align=center;verticalAlign=middle;resizable=0;points=[];" parent="Jv5b99Ny6Am5q-5sL5hU-32" vertex="1" connectable="0">
          <mxGeometry x="-0.2993" y="3" relative="1" as="geometry">
            <mxPoint as="offset" />
          </mxGeometry>
        </mxCell>
        <mxCell id="Jv5b99Ny6Am5q-5sL5hU-34" value="Success" style="edgeLabel;html=1;align=center;verticalAlign=middle;resizable=0;points=[];" parent="Jv5b99Ny6Am5q-5sL5hU-32" vertex="1" connectable="0">
          <mxGeometry x="-0.2322" y="-2" relative="1" as="geometry">
            <mxPoint x="4" as="offset" />
          </mxGeometry>
        </mxCell>
        <mxCell id="Jv5b99Ny6Am5q-5sL5hU-35" style="edgeStyle=orthogonalEdgeStyle;rounded=0;orthogonalLoop=1;jettySize=auto;html=1;exitX=0;exitY=0.5;exitDx=0;exitDy=0;exitPerimeter=0;entryX=0.25;entryY=1;entryDx=0;entryDy=0;" parent="1" source="Jv5b99Ny6Am5q-5sL5hU-37" target="Jv5b99Ny6Am5q-5sL5hU-18" edge="1">
          <mxGeometry relative="1" as="geometry">
            <Array as="points">
              <mxPoint x="-700.06" y="1430" />
              <mxPoint x="-680.06" y="1430" />
            </Array>
          </mxGeometry>
        </mxCell>
        <mxCell id="Jv5b99Ny6Am5q-5sL5hU-36" value="Not Success" style="edgeLabel;html=1;align=center;verticalAlign=middle;resizable=0;points=[];" parent="Jv5b99Ny6Am5q-5sL5hU-35" vertex="1" connectable="0">
          <mxGeometry x="-0.4272" y="1" relative="1" as="geometry">
            <mxPoint as="offset" />
          </mxGeometry>
        </mxCell>
        <mxCell id="Jv5b99Ny6Am5q-5sL5hU-37" value="Deleted?" style="strokeWidth=2;html=1;shape=mxgraph.flowchart.decision;whiteSpace=wrap;" parent="1" vertex="1">
          <mxGeometry x="-700.06" y="1450" width="129" height="70" as="geometry" />
        </mxCell>
        <mxCell id="Jv5b99Ny6Am5q-5sL5hU-38" style="edgeStyle=orthogonalEdgeStyle;rounded=0;orthogonalLoop=1;jettySize=auto;html=1;exitX=0.5;exitY=1;exitDx=0;exitDy=0;entryX=0.5;entryY=0;entryDx=0;entryDy=0;entryPerimeter=0;" parent="1" source="Jv5b99Ny6Am5q-5sL5hU-18" target="Jv5b99Ny6Am5q-5sL5hU-37" edge="1">
          <mxGeometry relative="1" as="geometry">
            <Array as="points">
              <mxPoint x="-635.06" y="1410" />
              <mxPoint x="-635.06" y="1430" />
            </Array>
          </mxGeometry>
        </mxCell>
        <mxCell id="Jv5b99Ny6Am5q-5sL5hU-39" value="Delete Data" style="shape=parallelogram;html=1;strokeWidth=2;perimeter=parallelogramPerimeter;whiteSpace=wrap;rounded=1;arcSize=12;size=0.23;" parent="1" vertex="1">
          <mxGeometry x="-690.06" y="1560" width="100" height="60" as="geometry" />
        </mxCell>
        <mxCell id="Jv5b99Ny6Am5q-5sL5hU-40" style="edgeStyle=orthogonalEdgeStyle;rounded=0;orthogonalLoop=1;jettySize=auto;html=1;exitX=0.5;exitY=1;exitDx=0;exitDy=0;exitPerimeter=0;entryX=0.553;entryY=-0.011;entryDx=0;entryDy=0;entryPerimeter=0;" parent="1" source="Jv5b99Ny6Am5q-5sL5hU-37" target="Jv5b99Ny6Am5q-5sL5hU-39" edge="1">
          <mxGeometry relative="1" as="geometry" />
        </mxCell>
        <mxCell id="Jv5b99Ny6Am5q-5sL5hU-41" value="Success" style="edgeLabel;html=1;align=center;verticalAlign=middle;resizable=0;points=[];" parent="Jv5b99Ny6Am5q-5sL5hU-40" vertex="1" connectable="0">
          <mxGeometry x="-0.2028" relative="1" as="geometry">
            <mxPoint as="offset" />
          </mxGeometry>
        </mxCell>
        <mxCell id="Jv5b99Ny6Am5q-5sL5hU-42" style="edgeStyle=orthogonalEdgeStyle;rounded=0;orthogonalLoop=1;jettySize=auto;html=1;exitX=0.5;exitY=1;exitDx=0;exitDy=0;exitPerimeter=0;entryX=0.5;entryY=0;entryDx=0;entryDy=0;" parent="1" source="Jv5b99Ny6Am5q-5sL5hU-44" target="Jv5b99Ny6Am5q-5sL5hU-48" edge="1">
          <mxGeometry relative="1" as="geometry" />
        </mxCell>
        <mxCell id="Jv5b99Ny6Am5q-5sL5hU-43" value="Success" style="edgeLabel;html=1;align=center;verticalAlign=middle;resizable=0;points=[];" parent="Jv5b99Ny6Am5q-5sL5hU-42" vertex="1" connectable="0">
          <mxGeometry x="-0.0759" relative="1" as="geometry">
            <mxPoint as="offset" />
          </mxGeometry>
        </mxCell>
        <mxCell id="Jv5b99Ny6Am5q-5sL5hU-44" value="Inserted" style="strokeWidth=2;html=1;shape=mxgraph.flowchart.decision;whiteSpace=wrap;" parent="1" vertex="1">
          <mxGeometry x="-560.0600000000001" y="1450" width="129" height="70" as="geometry" />
        </mxCell>
        <mxCell id="Jv5b99Ny6Am5q-5sL5hU-45" style="edgeStyle=orthogonalEdgeStyle;rounded=0;orthogonalLoop=1;jettySize=auto;html=1;exitX=0.75;exitY=1;exitDx=0;exitDy=0;entryX=0.5;entryY=0;entryDx=0;entryDy=0;entryPerimeter=0;" parent="1" source="Jv5b99Ny6Am5q-5sL5hU-19" target="Jv5b99Ny6Am5q-5sL5hU-44" edge="1">
          <mxGeometry relative="1" as="geometry">
            <Array as="points">
              <mxPoint x="-495.06000000000006" y="1410" />
              <mxPoint x="-495.06000000000006" y="1430" />
              <mxPoint x="-495.06000000000006" y="1430" />
            </Array>
          </mxGeometry>
        </mxCell>
        <mxCell id="Jv5b99Ny6Am5q-5sL5hU-46" style="edgeStyle=orthogonalEdgeStyle;rounded=0;orthogonalLoop=1;jettySize=auto;html=1;exitX=0;exitY=0.5;exitDx=0;exitDy=0;exitPerimeter=0;entryX=0.347;entryY=0.98;entryDx=0;entryDy=0;entryPerimeter=0;" parent="1" source="Jv5b99Ny6Am5q-5sL5hU-44" target="Jv5b99Ny6Am5q-5sL5hU-19" edge="1">
          <mxGeometry relative="1" as="geometry">
            <Array as="points">
              <mxPoint x="-560.0600000000001" y="1430" />
              <mxPoint x="-538.0600000000001" y="1430" />
            </Array>
          </mxGeometry>
        </mxCell>
        <mxCell id="Jv5b99Ny6Am5q-5sL5hU-47" value="Not Success" style="edgeLabel;html=1;align=center;verticalAlign=middle;resizable=0;points=[];" parent="Jv5b99Ny6Am5q-5sL5hU-46" vertex="1" connectable="0">
          <mxGeometry x="-0.5" y="1" relative="1" as="geometry">
            <mxPoint y="-6" as="offset" />
          </mxGeometry>
        </mxCell>
        <mxCell id="Jv5b99Ny6Am5q-5sL5hU-48" value="Insert Data&lt;div&gt;To Table&lt;/div&gt;" style="shape=parallelogram;html=1;strokeWidth=2;perimeter=parallelogramPerimeter;whiteSpace=wrap;rounded=1;arcSize=12;size=0.23;" parent="1" vertex="1">
          <mxGeometry x="-545.5600000000001" y="1560" width="100" height="60" as="geometry" />
        </mxCell>
        <mxCell id="Jv5b99Ny6Am5q-5sL5hU-82" value="&lt;font style=&quot;font-size: 12px;&quot;&gt;View&amp;nbsp;communication_history Table&lt;/font&gt;" style="rounded=1;whiteSpace=wrap;html=1;" parent="1" vertex="1">
          <mxGeometry x="-330" y="1280" width="149.94" height="70" as="geometry" />
        </mxCell>
        <mxCell id="Jv5b99Ny6Am5q-5sL5hU-83" value="Update&amp;nbsp;communication_history Table Records" style="rounded=1;whiteSpace=wrap;html=1;" parent="1" vertex="1">
          <mxGeometry x="-210" y="1360" width="159.94" height="70" as="geometry" />
        </mxCell>
        <mxCell id="Jv5b99Ny6Am5q-5sL5hU-84" value="Delete communication_history&lt;div&gt;Table Records&lt;/div&gt;" style="rounded=1;whiteSpace=wrap;html=1;" parent="1" vertex="1">
          <mxGeometry x="-40" y="1340" width="149.94" height="80" as="geometry" />
        </mxCell>
        <mxCell id="Jv5b99Ny6Am5q-5sL5hU-85" value="add a new communication_history recored" style="rounded=1;whiteSpace=wrap;html=1;" parent="1" vertex="1">
          <mxGeometry x="124.44" y="1330" width="151.06" height="80" as="geometry" />
        </mxCell>
        <mxCell id="Jv5b99Ny6Am5q-5sL5hU-86" style="edgeStyle=orthogonalEdgeStyle;rounded=0;orthogonalLoop=1;jettySize=auto;html=1;exitX=0.5;exitY=1;exitDx=0;exitDy=0;exitPerimeter=0;entryX=0.5;entryY=0;entryDx=0;entryDy=0;" parent="1" source="Jv5b99Ny6Am5q-5sL5hU-90" target="Jv5b99Ny6Am5q-5sL5hU-92" edge="1">
          <mxGeometry relative="1" as="geometry">
            <mxPoint x="-239.70705882352922" y="1560" as="targetPoint" />
          </mxGeometry>
        </mxCell>
        <mxCell id="Jv5b99Ny6Am5q-5sL5hU-87" value="Success" style="edgeLabel;html=1;align=center;verticalAlign=middle;resizable=0;points=[];" parent="Jv5b99Ny6Am5q-5sL5hU-86" vertex="1" connectable="0">
          <mxGeometry x="-0.2138" y="1" relative="1" as="geometry">
            <mxPoint as="offset" />
          </mxGeometry>
        </mxCell>
        <mxCell id="Jv5b99Ny6Am5q-5sL5hU-88" style="edgeStyle=orthogonalEdgeStyle;rounded=0;orthogonalLoop=1;jettySize=auto;html=1;exitX=0;exitY=0.5;exitDx=0;exitDy=0;exitPerimeter=0;entryX=0;entryY=0.5;entryDx=0;entryDy=0;" parent="1" target="Jv5b99Ny6Am5q-5sL5hU-82" edge="1">
          <mxGeometry relative="1" as="geometry">
            <Array as="points">
              <mxPoint x="-350" y="1490" />
              <mxPoint x="-350" y="1385" />
              <mxPoint x="-360" y="1385" />
              <mxPoint x="-360" y="1315" />
            </Array>
            <mxPoint x="-324.44999999999993" y="1490" as="sourcePoint" />
            <mxPoint x="-349.89" y="1310" as="targetPoint" />
          </mxGeometry>
        </mxCell>
        <mxCell id="Jv5b99Ny6Am5q-5sL5hU-89" value="Not Success" style="edgeLabel;html=1;align=center;verticalAlign=middle;resizable=0;points=[];" parent="Jv5b99Ny6Am5q-5sL5hU-88" vertex="1" connectable="0">
          <mxGeometry x="0.1124" relative="1" as="geometry">
            <mxPoint y="9" as="offset" />
          </mxGeometry>
        </mxCell>
        <mxCell id="Jv5b99Ny6Am5q-5sL5hU-90" value="Viewed?" style="strokeWidth=2;html=1;shape=mxgraph.flowchart.decision;whiteSpace=wrap;" parent="1" vertex="1">
          <mxGeometry x="-339.99999999999994" y="1460" width="129" height="70" as="geometry" />
        </mxCell>
        <mxCell id="Jv5b99Ny6Am5q-5sL5hU-91" style="edgeStyle=orthogonalEdgeStyle;rounded=0;orthogonalLoop=1;jettySize=auto;html=1;exitX=0.5;exitY=1;exitDx=0;exitDy=0;entryX=0.5;entryY=0;entryDx=0;entryDy=0;entryPerimeter=0;" parent="1" source="Jv5b99Ny6Am5q-5sL5hU-82" target="Jv5b99Ny6Am5q-5sL5hU-90" edge="1">
          <mxGeometry relative="1" as="geometry" />
        </mxCell>
        <mxCell id="Jv5b99Ny6Am5q-5sL5hU-92" value="Show Data&amp;nbsp;&lt;div&gt;To User&lt;/div&gt;" style="shape=parallelogram;html=1;strokeWidth=2;perimeter=parallelogramPerimeter;whiteSpace=wrap;rounded=1;arcSize=12;size=0.23;" parent="1" vertex="1">
          <mxGeometry x="-325.49999999999994" y="1590" width="100" height="60" as="geometry" />
        </mxCell>
        <mxCell id="Jv5b99Ny6Am5q-5sL5hU-93" style="edgeStyle=orthogonalEdgeStyle;rounded=0;orthogonalLoop=1;jettySize=auto;html=1;exitX=0;exitY=0.5;exitDx=0;exitDy=0;exitPerimeter=0;entryX=0.25;entryY=1;entryDx=0;entryDy=0;" parent="1" source="Jv5b99Ny6Am5q-5sL5hU-95" target="Jv5b99Ny6Am5q-5sL5hU-83" edge="1">
          <mxGeometry relative="1" as="geometry">
            <Array as="points">
              <mxPoint x="-170.05999999999995" y="1495" />
              <mxPoint x="-170.05999999999995" y="1440" />
              <mxPoint x="-140.05999999999995" y="1440" />
            </Array>
          </mxGeometry>
        </mxCell>
        <mxCell id="Jv5b99Ny6Am5q-5sL5hU-94" value="Not Success" style="edgeLabel;html=1;align=center;verticalAlign=middle;resizable=0;points=[];" parent="Jv5b99Ny6Am5q-5sL5hU-93" vertex="1" connectable="0">
          <mxGeometry x="-0.4023" y="2" relative="1" as="geometry">
            <mxPoint as="offset" />
          </mxGeometry>
        </mxCell>
        <mxCell id="Jv5b99Ny6Am5q-5sL5hU-95" value="Updated?" style="strokeWidth=2;html=1;shape=mxgraph.flowchart.decision;whiteSpace=wrap;" parent="1" vertex="1">
          <mxGeometry x="-174.55999999999995" y="1480" width="129" height="70" as="geometry" />
        </mxCell>
        <mxCell id="Jv5b99Ny6Am5q-5sL5hU-96" style="edgeStyle=orthogonalEdgeStyle;rounded=0;orthogonalLoop=1;jettySize=auto;html=1;exitX=0.546;exitY=1;exitDx=0;exitDy=0;entryX=0.5;entryY=0;entryDx=0;entryDy=0;entryPerimeter=0;exitPerimeter=0;" parent="1" source="Jv5b99Ny6Am5q-5sL5hU-83" target="Jv5b99Ny6Am5q-5sL5hU-95" edge="1">
          <mxGeometry relative="1" as="geometry">
            <mxPoint x="-110.05999999999995" y="1460" as="targetPoint" />
          </mxGeometry>
        </mxCell>
        <mxCell id="Jv5b99Ny6Am5q-5sL5hU-97" value="Update Data" style="shape=parallelogram;html=1;strokeWidth=2;perimeter=parallelogramPerimeter;whiteSpace=wrap;rounded=1;arcSize=12;size=0.23;" parent="1" vertex="1">
          <mxGeometry x="-160.05999999999995" y="1590" width="100" height="60" as="geometry" />
        </mxCell>
        <mxCell id="Jv5b99Ny6Am5q-5sL5hU-98" style="edgeStyle=orthogonalEdgeStyle;rounded=0;orthogonalLoop=1;jettySize=auto;html=1;exitX=0.5;exitY=1;exitDx=0;exitDy=0;exitPerimeter=0;entryX=0.551;entryY=0.009;entryDx=0;entryDy=0;entryPerimeter=0;" parent="1" source="Jv5b99Ny6Am5q-5sL5hU-95" target="Jv5b99Ny6Am5q-5sL5hU-97" edge="1">
          <mxGeometry relative="1" as="geometry" />
        </mxCell>
        <mxCell id="Jv5b99Ny6Am5q-5sL5hU-99" value="&lt;span style=&quot;caret-color: rgba(0, 0, 0, 0); color: rgba(0, 0, 0, 0); font-family: monospace; font-size: 0px; text-align: start; background-color: rgb(251, 251, 251);&quot;&gt;%3CmxGraphModel%3E%3Croot%3E%3CmxCell%20id%3D%220%22%2F%3E%3CmxCell%20id%3D%221%22%20parent%3D%220%22%2F%3E%3CmxCell%20id%3D%222%22%20value%3D%22Has%20Privileges%3F%22%20style%3D%22edgeLabel%3Bhtml%3D1%3Balign%3Dcenter%3BverticalAlign%3Dmiddle%3Bresizable%3D0%3Bpoints%3D%5B%5D%3B%22%20vertex%3D%221%22%20connectable%3D%220%22%20parent%3D%221%22%3E%3CmxGeometry%20x%3D%22201.0000000000001%22%20y%3D%22905.8620689655172%22%20as%3D%22geometry%22%2F%3E%3C%2FmxCell%3E%3C%2Froot%3E%3C%2FmxGraphModel%3E&lt;/span&gt;" style="edgeLabel;html=1;align=center;verticalAlign=middle;resizable=0;points=[];" parent="Jv5b99Ny6Am5q-5sL5hU-98" vertex="1" connectable="0">
          <mxGeometry x="-0.2993" y="3" relative="1" as="geometry">
            <mxPoint as="offset" />
          </mxGeometry>
        </mxCell>
        <mxCell id="Jv5b99Ny6Am5q-5sL5hU-100" value="Success" style="edgeLabel;html=1;align=center;verticalAlign=middle;resizable=0;points=[];" parent="Jv5b99Ny6Am5q-5sL5hU-98" vertex="1" connectable="0">
          <mxGeometry x="-0.2322" y="-2" relative="1" as="geometry">
            <mxPoint x="4" as="offset" />
          </mxGeometry>
        </mxCell>
        <mxCell id="Jv5b99Ny6Am5q-5sL5hU-101" style="edgeStyle=orthogonalEdgeStyle;rounded=0;orthogonalLoop=1;jettySize=auto;html=1;exitX=0;exitY=0.5;exitDx=0;exitDy=0;exitPerimeter=0;entryX=0.25;entryY=1;entryDx=0;entryDy=0;" parent="1" source="Jv5b99Ny6Am5q-5sL5hU-103" target="Jv5b99Ny6Am5q-5sL5hU-84" edge="1">
          <mxGeometry relative="1" as="geometry">
            <Array as="points">
              <mxPoint x="-30.059999999999945" y="1440" />
              <mxPoint x="-10.059999999999945" y="1440" />
            </Array>
          </mxGeometry>
        </mxCell>
        <mxCell id="Jv5b99Ny6Am5q-5sL5hU-102" value="Not Success" style="edgeLabel;html=1;align=center;verticalAlign=middle;resizable=0;points=[];" parent="Jv5b99Ny6Am5q-5sL5hU-101" vertex="1" connectable="0">
          <mxGeometry x="-0.4272" y="1" relative="1" as="geometry">
            <mxPoint as="offset" />
          </mxGeometry>
        </mxCell>
        <mxCell id="Jv5b99Ny6Am5q-5sL5hU-103" value="Deleted?" style="strokeWidth=2;html=1;shape=mxgraph.flowchart.decision;whiteSpace=wrap;" parent="1" vertex="1">
          <mxGeometry x="-30.059999999999945" y="1460" width="129" height="70" as="geometry" />
        </mxCell>
        <mxCell id="Jv5b99Ny6Am5q-5sL5hU-104" style="edgeStyle=orthogonalEdgeStyle;rounded=0;orthogonalLoop=1;jettySize=auto;html=1;exitX=0.5;exitY=1;exitDx=0;exitDy=0;entryX=0.5;entryY=0;entryDx=0;entryDy=0;entryPerimeter=0;" parent="1" source="Jv5b99Ny6Am5q-5sL5hU-84" target="Jv5b99Ny6Am5q-5sL5hU-103" edge="1">
          <mxGeometry relative="1" as="geometry">
            <Array as="points">
              <mxPoint x="34.940000000000055" y="1420" />
              <mxPoint x="34.940000000000055" y="1440" />
            </Array>
          </mxGeometry>
        </mxCell>
        <mxCell id="Jv5b99Ny6Am5q-5sL5hU-105" value="Delete Data" style="shape=parallelogram;html=1;strokeWidth=2;perimeter=parallelogramPerimeter;whiteSpace=wrap;rounded=1;arcSize=12;size=0.23;" parent="1" vertex="1">
          <mxGeometry x="-20.059999999999945" y="1570" width="100" height="60" as="geometry" />
        </mxCell>
        <mxCell id="Jv5b99Ny6Am5q-5sL5hU-106" style="edgeStyle=orthogonalEdgeStyle;rounded=0;orthogonalLoop=1;jettySize=auto;html=1;exitX=0.5;exitY=1;exitDx=0;exitDy=0;exitPerimeter=0;entryX=0.553;entryY=-0.011;entryDx=0;entryDy=0;entryPerimeter=0;" parent="1" source="Jv5b99Ny6Am5q-5sL5hU-103" target="Jv5b99Ny6Am5q-5sL5hU-105" edge="1">
          <mxGeometry relative="1" as="geometry" />
        </mxCell>
        <mxCell id="Jv5b99Ny6Am5q-5sL5hU-107" value="Success" style="edgeLabel;html=1;align=center;verticalAlign=middle;resizable=0;points=[];" parent="Jv5b99Ny6Am5q-5sL5hU-106" vertex="1" connectable="0">
          <mxGeometry x="-0.2028" relative="1" as="geometry">
            <mxPoint as="offset" />
          </mxGeometry>
        </mxCell>
        <mxCell id="Jv5b99Ny6Am5q-5sL5hU-108" style="edgeStyle=orthogonalEdgeStyle;rounded=0;orthogonalLoop=1;jettySize=auto;html=1;exitX=0.5;exitY=1;exitDx=0;exitDy=0;exitPerimeter=0;entryX=0.5;entryY=0;entryDx=0;entryDy=0;" parent="1" source="Jv5b99Ny6Am5q-5sL5hU-110" target="Jv5b99Ny6Am5q-5sL5hU-114" edge="1">
          <mxGeometry relative="1" as="geometry" />
        </mxCell>
        <mxCell id="Jv5b99Ny6Am5q-5sL5hU-109" value="Success" style="edgeLabel;html=1;align=center;verticalAlign=middle;resizable=0;points=[];" parent="Jv5b99Ny6Am5q-5sL5hU-108" vertex="1" connectable="0">
          <mxGeometry x="-0.0759" relative="1" as="geometry">
            <mxPoint as="offset" />
          </mxGeometry>
        </mxCell>
        <mxCell id="Jv5b99Ny6Am5q-5sL5hU-110" value="Inserted" style="strokeWidth=2;html=1;shape=mxgraph.flowchart.decision;whiteSpace=wrap;" parent="1" vertex="1">
          <mxGeometry x="109.93999999999994" y="1460" width="129" height="70" as="geometry" />
        </mxCell>
        <mxCell id="Jv5b99Ny6Am5q-5sL5hU-111" style="edgeStyle=orthogonalEdgeStyle;rounded=0;orthogonalLoop=1;jettySize=auto;html=1;exitX=0.75;exitY=1;exitDx=0;exitDy=0;entryX=0.5;entryY=0;entryDx=0;entryDy=0;entryPerimeter=0;" parent="1" source="Jv5b99Ny6Am5q-5sL5hU-85" target="Jv5b99Ny6Am5q-5sL5hU-110" edge="1">
          <mxGeometry relative="1" as="geometry">
            <Array as="points">
              <mxPoint x="174.93999999999994" y="1420" />
              <mxPoint x="174.93999999999994" y="1440" />
              <mxPoint x="174.93999999999994" y="1440" />
            </Array>
          </mxGeometry>
        </mxCell>
        <mxCell id="Jv5b99Ny6Am5q-5sL5hU-112" style="edgeStyle=orthogonalEdgeStyle;rounded=0;orthogonalLoop=1;jettySize=auto;html=1;exitX=0;exitY=0.5;exitDx=0;exitDy=0;exitPerimeter=0;entryX=0.347;entryY=0.98;entryDx=0;entryDy=0;entryPerimeter=0;" parent="1" source="Jv5b99Ny6Am5q-5sL5hU-110" target="Jv5b99Ny6Am5q-5sL5hU-85" edge="1">
          <mxGeometry relative="1" as="geometry">
            <Array as="points">
              <mxPoint x="109.93999999999994" y="1440" />
              <mxPoint x="131.93999999999994" y="1440" />
            </Array>
          </mxGeometry>
        </mxCell>
        <mxCell id="Jv5b99Ny6Am5q-5sL5hU-113" value="Not Success" style="edgeLabel;html=1;align=center;verticalAlign=middle;resizable=0;points=[];" parent="Jv5b99Ny6Am5q-5sL5hU-112" vertex="1" connectable="0">
          <mxGeometry x="-0.5" y="1" relative="1" as="geometry">
            <mxPoint y="-6" as="offset" />
          </mxGeometry>
        </mxCell>
        <mxCell id="Jv5b99Ny6Am5q-5sL5hU-114" value="Insert Data&lt;div&gt;To Table&lt;/div&gt;" style="shape=parallelogram;html=1;strokeWidth=2;perimeter=parallelogramPerimeter;whiteSpace=wrap;rounded=1;arcSize=12;size=0.23;" parent="1" vertex="1">
          <mxGeometry x="124.43999999999994" y="1570" width="100" height="60" as="geometry" />
        </mxCell>
        <mxCell id="Jv5b99Ny6Am5q-5sL5hU-115" value="View donations" style="rounded=1;whiteSpace=wrap;html=1;" parent="1" vertex="1">
          <mxGeometry x="339.94000000000005" y="1370" width="120" height="60" as="geometry" />
        </mxCell>
        <mxCell id="Jv5b99Ny6Am5q-5sL5hU-116" value="update an donation informations" style="rounded=1;whiteSpace=wrap;html=1;" parent="1" vertex="1">
          <mxGeometry x="469.94000000000005" y="1370" width="120" height="60" as="geometry" />
        </mxCell>
        <mxCell id="Jv5b99Ny6Am5q-5sL5hU-117" value="delete a donation" style="rounded=1;whiteSpace=wrap;html=1;" parent="1" vertex="1">
          <mxGeometry x="599.94" y="1370" width="120" height="60" as="geometry" />
        </mxCell>
        <mxCell id="Jv5b99Ny6Am5q-5sL5hU-118" value="add a new donation" style="rounded=1;whiteSpace=wrap;html=1;" parent="1" vertex="1">
          <mxGeometry x="729.94" y="1370" width="120" height="60" as="geometry" />
        </mxCell>
        <mxCell id="Jv5b99Ny6Am5q-5sL5hU-119" style="edgeStyle=orthogonalEdgeStyle;rounded=0;orthogonalLoop=1;jettySize=auto;html=1;exitX=0.5;exitY=1;exitDx=0;exitDy=0;exitPerimeter=0;entryX=0.5;entryY=0;entryDx=0;entryDy=0;" parent="1" source="Jv5b99Ny6Am5q-5sL5hU-123" target="Jv5b99Ny6Am5q-5sL5hU-125" edge="1">
          <mxGeometry relative="1" as="geometry">
            <mxPoint x="400.2929411764708" y="1570" as="targetPoint" />
          </mxGeometry>
        </mxCell>
        <mxCell id="Jv5b99Ny6Am5q-5sL5hU-120" value="Success" style="edgeLabel;html=1;align=center;verticalAlign=middle;resizable=0;points=[];" parent="Jv5b99Ny6Am5q-5sL5hU-119" vertex="1" connectable="0">
          <mxGeometry x="-0.2138" y="1" relative="1" as="geometry">
            <mxPoint as="offset" />
          </mxGeometry>
        </mxCell>
        <mxCell id="Jv5b99Ny6Am5q-5sL5hU-121" style="edgeStyle=orthogonalEdgeStyle;rounded=0;orthogonalLoop=1;jettySize=auto;html=1;exitX=0;exitY=0.5;exitDx=0;exitDy=0;exitPerimeter=0;entryX=0;entryY=0.5;entryDx=0;entryDy=0;" parent="1" source="Jv5b99Ny6Am5q-5sL5hU-123" target="Jv5b99Ny6Am5q-5sL5hU-115" edge="1">
          <mxGeometry relative="1" as="geometry">
            <Array as="points">
              <mxPoint x="309.94000000000005" y="1505" />
              <mxPoint x="309.94000000000005" y="1400" />
            </Array>
          </mxGeometry>
        </mxCell>
        <mxCell id="Jv5b99Ny6Am5q-5sL5hU-122" value="Not Success" style="edgeLabel;html=1;align=center;verticalAlign=middle;resizable=0;points=[];" parent="Jv5b99Ny6Am5q-5sL5hU-121" vertex="1" connectable="0">
          <mxGeometry x="0.1124" relative="1" as="geometry">
            <mxPoint y="9" as="offset" />
          </mxGeometry>
        </mxCell>
        <mxCell id="Jv5b99Ny6Am5q-5sL5hU-123" value="Viewed?" style="strokeWidth=2;html=1;shape=mxgraph.flowchart.decision;whiteSpace=wrap;" parent="1" vertex="1">
          <mxGeometry x="335.44000000000005" y="1470" width="129" height="70" as="geometry" />
        </mxCell>
        <mxCell id="Jv5b99Ny6Am5q-5sL5hU-124" style="edgeStyle=orthogonalEdgeStyle;rounded=0;orthogonalLoop=1;jettySize=auto;html=1;exitX=0.5;exitY=1;exitDx=0;exitDy=0;entryX=0.5;entryY=0;entryDx=0;entryDy=0;entryPerimeter=0;" parent="1" source="Jv5b99Ny6Am5q-5sL5hU-115" target="Jv5b99Ny6Am5q-5sL5hU-123" edge="1">
          <mxGeometry relative="1" as="geometry" />
        </mxCell>
        <mxCell id="Jv5b99Ny6Am5q-5sL5hU-125" value="Show Data&amp;nbsp;&lt;div&gt;To User&lt;/div&gt;" style="shape=parallelogram;html=1;strokeWidth=2;perimeter=parallelogramPerimeter;whiteSpace=wrap;rounded=1;arcSize=12;size=0.23;" parent="1" vertex="1">
          <mxGeometry x="349.94000000000005" y="1580" width="100" height="60" as="geometry" />
        </mxCell>
        <mxCell id="Jv5b99Ny6Am5q-5sL5hU-126" style="edgeStyle=orthogonalEdgeStyle;rounded=0;orthogonalLoop=1;jettySize=auto;html=1;exitX=0;exitY=0.5;exitDx=0;exitDy=0;exitPerimeter=0;entryX=0.25;entryY=1;entryDx=0;entryDy=0;" parent="1" source="Jv5b99Ny6Am5q-5sL5hU-128" target="Jv5b99Ny6Am5q-5sL5hU-116" edge="1">
          <mxGeometry relative="1" as="geometry">
            <Array as="points">
              <mxPoint x="469.94000000000005" y="1505" />
              <mxPoint x="469.94000000000005" y="1450" />
              <mxPoint x="499.94000000000005" y="1450" />
            </Array>
          </mxGeometry>
        </mxCell>
        <mxCell id="Jv5b99Ny6Am5q-5sL5hU-127" value="Not Success" style="edgeLabel;html=1;align=center;verticalAlign=middle;resizable=0;points=[];" parent="Jv5b99Ny6Am5q-5sL5hU-126" vertex="1" connectable="0">
          <mxGeometry x="-0.4023" y="2" relative="1" as="geometry">
            <mxPoint as="offset" />
          </mxGeometry>
        </mxCell>
        <mxCell id="Jv5b99Ny6Am5q-5sL5hU-128" value="Updated?" style="strokeWidth=2;html=1;shape=mxgraph.flowchart.decision;whiteSpace=wrap;" parent="1" vertex="1">
          <mxGeometry x="470.94000000000005" y="1470" width="129" height="70" as="geometry" />
        </mxCell>
        <mxCell id="Jv5b99Ny6Am5q-5sL5hU-129" style="edgeStyle=orthogonalEdgeStyle;rounded=0;orthogonalLoop=1;jettySize=auto;html=1;exitX=0.546;exitY=1;exitDx=0;exitDy=0;entryX=0.5;entryY=0;entryDx=0;entryDy=0;entryPerimeter=0;exitPerimeter=0;" parent="1" source="Jv5b99Ny6Am5q-5sL5hU-116" target="Jv5b99Ny6Am5q-5sL5hU-128" edge="1">
          <mxGeometry relative="1" as="geometry">
            <mxPoint x="529.94" y="1470" as="targetPoint" />
          </mxGeometry>
        </mxCell>
        <mxCell id="Jv5b99Ny6Am5q-5sL5hU-130" value="Update Data" style="shape=parallelogram;html=1;strokeWidth=2;perimeter=parallelogramPerimeter;whiteSpace=wrap;rounded=1;arcSize=12;size=0.23;" parent="1" vertex="1">
          <mxGeometry x="479.94000000000005" y="1580" width="100" height="60" as="geometry" />
        </mxCell>
        <mxCell id="Jv5b99Ny6Am5q-5sL5hU-131" style="edgeStyle=orthogonalEdgeStyle;rounded=0;orthogonalLoop=1;jettySize=auto;html=1;exitX=0.5;exitY=1;exitDx=0;exitDy=0;exitPerimeter=0;entryX=0.551;entryY=0.009;entryDx=0;entryDy=0;entryPerimeter=0;" parent="1" source="Jv5b99Ny6Am5q-5sL5hU-128" target="Jv5b99Ny6Am5q-5sL5hU-130" edge="1">
          <mxGeometry relative="1" as="geometry" />
        </mxCell>
        <mxCell id="Jv5b99Ny6Am5q-5sL5hU-132" value="&lt;span style=&quot;caret-color: rgba(0, 0, 0, 0); color: rgba(0, 0, 0, 0); font-family: monospace; font-size: 0px; text-align: start; background-color: rgb(251, 251, 251);&quot;&gt;%3CmxGraphModel%3E%3Croot%3E%3CmxCell%20id%3D%220%22%2F%3E%3CmxCell%20id%3D%221%22%20parent%3D%220%22%2F%3E%3CmxCell%20id%3D%222%22%20value%3D%22Has%20Privileges%3F%22%20style%3D%22edgeLabel%3Bhtml%3D1%3Balign%3Dcenter%3BverticalAlign%3Dmiddle%3Bresizable%3D0%3Bpoints%3D%5B%5D%3B%22%20vertex%3D%221%22%20connectable%3D%220%22%20parent%3D%221%22%3E%3CmxGeometry%20x%3D%22201.0000000000001%22%20y%3D%22905.8620689655172%22%20as%3D%22geometry%22%2F%3E%3C%2FmxCell%3E%3C%2Froot%3E%3C%2FmxGraphModel%3E&lt;/span&gt;" style="edgeLabel;html=1;align=center;verticalAlign=middle;resizable=0;points=[];" parent="Jv5b99Ny6Am5q-5sL5hU-131" vertex="1" connectable="0">
          <mxGeometry x="-0.2993" y="3" relative="1" as="geometry">
            <mxPoint as="offset" />
          </mxGeometry>
        </mxCell>
        <mxCell id="Jv5b99Ny6Am5q-5sL5hU-133" value="Success" style="edgeLabel;html=1;align=center;verticalAlign=middle;resizable=0;points=[];" parent="Jv5b99Ny6Am5q-5sL5hU-131" vertex="1" connectable="0">
          <mxGeometry x="-0.2322" y="-2" relative="1" as="geometry">
            <mxPoint x="4" as="offset" />
          </mxGeometry>
        </mxCell>
        <mxCell id="Jv5b99Ny6Am5q-5sL5hU-134" style="edgeStyle=orthogonalEdgeStyle;rounded=0;orthogonalLoop=1;jettySize=auto;html=1;exitX=0;exitY=0.5;exitDx=0;exitDy=0;exitPerimeter=0;entryX=0.25;entryY=1;entryDx=0;entryDy=0;" parent="1" source="Jv5b99Ny6Am5q-5sL5hU-136" target="Jv5b99Ny6Am5q-5sL5hU-117" edge="1">
          <mxGeometry relative="1" as="geometry">
            <Array as="points">
              <mxPoint x="609.94" y="1450" />
              <mxPoint x="629.94" y="1450" />
            </Array>
          </mxGeometry>
        </mxCell>
        <mxCell id="Jv5b99Ny6Am5q-5sL5hU-135" value="Not Success" style="edgeLabel;html=1;align=center;verticalAlign=middle;resizable=0;points=[];" parent="Jv5b99Ny6Am5q-5sL5hU-134" vertex="1" connectable="0">
          <mxGeometry x="-0.4272" y="1" relative="1" as="geometry">
            <mxPoint as="offset" />
          </mxGeometry>
        </mxCell>
        <mxCell id="Jv5b99Ny6Am5q-5sL5hU-136" value="Deleted?" style="strokeWidth=2;html=1;shape=mxgraph.flowchart.decision;whiteSpace=wrap;" parent="1" vertex="1">
          <mxGeometry x="609.94" y="1470" width="129" height="70" as="geometry" />
        </mxCell>
        <mxCell id="Jv5b99Ny6Am5q-5sL5hU-137" style="edgeStyle=orthogonalEdgeStyle;rounded=0;orthogonalLoop=1;jettySize=auto;html=1;exitX=0.5;exitY=1;exitDx=0;exitDy=0;entryX=0.5;entryY=0;entryDx=0;entryDy=0;entryPerimeter=0;" parent="1" source="Jv5b99Ny6Am5q-5sL5hU-117" target="Jv5b99Ny6Am5q-5sL5hU-136" edge="1">
          <mxGeometry relative="1" as="geometry">
            <Array as="points">
              <mxPoint x="674.94" y="1430" />
              <mxPoint x="674.94" y="1450" />
            </Array>
          </mxGeometry>
        </mxCell>
        <mxCell id="Jv5b99Ny6Am5q-5sL5hU-138" value="Delete Data" style="shape=parallelogram;html=1;strokeWidth=2;perimeter=parallelogramPerimeter;whiteSpace=wrap;rounded=1;arcSize=12;size=0.23;" parent="1" vertex="1">
          <mxGeometry x="619.94" y="1580" width="100" height="60" as="geometry" />
        </mxCell>
        <mxCell id="Jv5b99Ny6Am5q-5sL5hU-139" style="edgeStyle=orthogonalEdgeStyle;rounded=0;orthogonalLoop=1;jettySize=auto;html=1;exitX=0.5;exitY=1;exitDx=0;exitDy=0;exitPerimeter=0;entryX=0.553;entryY=-0.011;entryDx=0;entryDy=0;entryPerimeter=0;" parent="1" source="Jv5b99Ny6Am5q-5sL5hU-136" target="Jv5b99Ny6Am5q-5sL5hU-138" edge="1">
          <mxGeometry relative="1" as="geometry" />
        </mxCell>
        <mxCell id="Jv5b99Ny6Am5q-5sL5hU-140" value="Success" style="edgeLabel;html=1;align=center;verticalAlign=middle;resizable=0;points=[];" parent="Jv5b99Ny6Am5q-5sL5hU-139" vertex="1" connectable="0">
          <mxGeometry x="-0.2028" relative="1" as="geometry">
            <mxPoint as="offset" />
          </mxGeometry>
        </mxCell>
        <mxCell id="Jv5b99Ny6Am5q-5sL5hU-141" style="edgeStyle=orthogonalEdgeStyle;rounded=0;orthogonalLoop=1;jettySize=auto;html=1;exitX=0.5;exitY=1;exitDx=0;exitDy=0;exitPerimeter=0;entryX=0.5;entryY=0;entryDx=0;entryDy=0;" parent="1" source="Jv5b99Ny6Am5q-5sL5hU-143" target="Jv5b99Ny6Am5q-5sL5hU-147" edge="1">
          <mxGeometry relative="1" as="geometry" />
        </mxCell>
        <mxCell id="Jv5b99Ny6Am5q-5sL5hU-142" value="Success" style="edgeLabel;html=1;align=center;verticalAlign=middle;resizable=0;points=[];" parent="Jv5b99Ny6Am5q-5sL5hU-141" vertex="1" connectable="0">
          <mxGeometry x="-0.0759" relative="1" as="geometry">
            <mxPoint as="offset" />
          </mxGeometry>
        </mxCell>
        <mxCell id="Jv5b99Ny6Am5q-5sL5hU-143" value="Inserted" style="strokeWidth=2;html=1;shape=mxgraph.flowchart.decision;whiteSpace=wrap;" parent="1" vertex="1">
          <mxGeometry x="749.94" y="1470" width="129" height="70" as="geometry" />
        </mxCell>
        <mxCell id="Jv5b99Ny6Am5q-5sL5hU-144" style="edgeStyle=orthogonalEdgeStyle;rounded=0;orthogonalLoop=1;jettySize=auto;html=1;exitX=0.75;exitY=1;exitDx=0;exitDy=0;entryX=0.5;entryY=0;entryDx=0;entryDy=0;entryPerimeter=0;" parent="1" source="Jv5b99Ny6Am5q-5sL5hU-118" target="Jv5b99Ny6Am5q-5sL5hU-143" edge="1">
          <mxGeometry relative="1" as="geometry">
            <Array as="points">
              <mxPoint x="814.94" y="1430" />
              <mxPoint x="814.94" y="1450" />
              <mxPoint x="814.94" y="1450" />
            </Array>
          </mxGeometry>
        </mxCell>
        <mxCell id="Jv5b99Ny6Am5q-5sL5hU-145" style="edgeStyle=orthogonalEdgeStyle;rounded=0;orthogonalLoop=1;jettySize=auto;html=1;exitX=0;exitY=0.5;exitDx=0;exitDy=0;exitPerimeter=0;entryX=0.347;entryY=0.98;entryDx=0;entryDy=0;entryPerimeter=0;" parent="1" source="Jv5b99Ny6Am5q-5sL5hU-143" target="Jv5b99Ny6Am5q-5sL5hU-118" edge="1">
          <mxGeometry relative="1" as="geometry">
            <Array as="points">
              <mxPoint x="749.94" y="1450" />
              <mxPoint x="771.94" y="1450" />
            </Array>
          </mxGeometry>
        </mxCell>
        <mxCell id="Jv5b99Ny6Am5q-5sL5hU-146" value="Not Success" style="edgeLabel;html=1;align=center;verticalAlign=middle;resizable=0;points=[];" parent="Jv5b99Ny6Am5q-5sL5hU-145" vertex="1" connectable="0">
          <mxGeometry x="-0.5" y="1" relative="1" as="geometry">
            <mxPoint y="-6" as="offset" />
          </mxGeometry>
        </mxCell>
        <mxCell id="Jv5b99Ny6Am5q-5sL5hU-147" value="Insert Data&lt;div&gt;To Table&lt;/div&gt;" style="shape=parallelogram;html=1;strokeWidth=2;perimeter=parallelogramPerimeter;whiteSpace=wrap;rounded=1;arcSize=12;size=0.23;" parent="1" vertex="1">
          <mxGeometry x="764.44" y="1580" width="100" height="60" as="geometry" />
        </mxCell>
        <mxCell id="Jv5b99Ny6Am5q-5sL5hU-148" value="View&amp;nbsp;donation_event Table" style="rounded=1;whiteSpace=wrap;html=1;" parent="1" vertex="1">
          <mxGeometry x="959.94" y="1380" width="120" height="60" as="geometry" />
        </mxCell>
        <mxCell id="Jv5b99Ny6Am5q-5sL5hU-149" value="Update&amp;nbsp;donation_event Table Records" style="rounded=1;whiteSpace=wrap;html=1;" parent="1" vertex="1">
          <mxGeometry x="1089.94" y="1380" width="120" height="60" as="geometry" />
        </mxCell>
        <mxCell id="Jv5b99Ny6Am5q-5sL5hU-150" value="&lt;div&gt;Delete donation_event&lt;/div&gt;&lt;div&gt;&lt;br&gt;&lt;/div&gt;" style="rounded=1;whiteSpace=wrap;html=1;" parent="1" vertex="1">
          <mxGeometry x="1219.94" y="1380" width="120" height="60" as="geometry" />
        </mxCell>
        <mxCell id="Jv5b99Ny6Am5q-5sL5hU-151" value="add a new donation_event recored" style="rounded=1;whiteSpace=wrap;html=1;" parent="1" vertex="1">
          <mxGeometry x="1349.94" y="1380" width="120" height="60" as="geometry" />
        </mxCell>
        <mxCell id="Jv5b99Ny6Am5q-5sL5hU-152" style="edgeStyle=orthogonalEdgeStyle;rounded=0;orthogonalLoop=1;jettySize=auto;html=1;exitX=0.5;exitY=1;exitDx=0;exitDy=0;exitPerimeter=0;entryX=0.5;entryY=0;entryDx=0;entryDy=0;" parent="1" source="Jv5b99Ny6Am5q-5sL5hU-156" target="Jv5b99Ny6Am5q-5sL5hU-158" edge="1">
          <mxGeometry relative="1" as="geometry">
            <mxPoint x="1020.2929411764708" y="1580" as="targetPoint" />
          </mxGeometry>
        </mxCell>
        <mxCell id="Jv5b99Ny6Am5q-5sL5hU-153" value="Success" style="edgeLabel;html=1;align=center;verticalAlign=middle;resizable=0;points=[];" parent="Jv5b99Ny6Am5q-5sL5hU-152" vertex="1" connectable="0">
          <mxGeometry x="-0.2138" y="1" relative="1" as="geometry">
            <mxPoint as="offset" />
          </mxGeometry>
        </mxCell>
        <mxCell id="Jv5b99Ny6Am5q-5sL5hU-154" style="edgeStyle=orthogonalEdgeStyle;rounded=0;orthogonalLoop=1;jettySize=auto;html=1;exitX=0;exitY=0.5;exitDx=0;exitDy=0;exitPerimeter=0;entryX=0;entryY=0.5;entryDx=0;entryDy=0;" parent="1" source="Jv5b99Ny6Am5q-5sL5hU-156" target="Jv5b99Ny6Am5q-5sL5hU-148" edge="1">
          <mxGeometry relative="1" as="geometry">
            <Array as="points">
              <mxPoint x="929.94" y="1515" />
              <mxPoint x="929.94" y="1410" />
            </Array>
          </mxGeometry>
        </mxCell>
        <mxCell id="Jv5b99Ny6Am5q-5sL5hU-155" value="Not Success" style="edgeLabel;html=1;align=center;verticalAlign=middle;resizable=0;points=[];" parent="Jv5b99Ny6Am5q-5sL5hU-154" vertex="1" connectable="0">
          <mxGeometry x="0.1124" relative="1" as="geometry">
            <mxPoint y="9" as="offset" />
          </mxGeometry>
        </mxCell>
        <mxCell id="Jv5b99Ny6Am5q-5sL5hU-156" value="Viewed?" style="strokeWidth=2;html=1;shape=mxgraph.flowchart.decision;whiteSpace=wrap;" parent="1" vertex="1">
          <mxGeometry x="955.44" y="1480" width="129" height="70" as="geometry" />
        </mxCell>
        <mxCell id="Jv5b99Ny6Am5q-5sL5hU-157" style="edgeStyle=orthogonalEdgeStyle;rounded=0;orthogonalLoop=1;jettySize=auto;html=1;exitX=0.5;exitY=1;exitDx=0;exitDy=0;entryX=0.5;entryY=0;entryDx=0;entryDy=0;entryPerimeter=0;" parent="1" source="Jv5b99Ny6Am5q-5sL5hU-148" target="Jv5b99Ny6Am5q-5sL5hU-156" edge="1">
          <mxGeometry relative="1" as="geometry" />
        </mxCell>
        <mxCell id="Jv5b99Ny6Am5q-5sL5hU-158" value="Show Data&amp;nbsp;&lt;div&gt;To User&lt;/div&gt;" style="shape=parallelogram;html=1;strokeWidth=2;perimeter=parallelogramPerimeter;whiteSpace=wrap;rounded=1;arcSize=12;size=0.23;" parent="1" vertex="1">
          <mxGeometry x="969.94" y="1590" width="100" height="60" as="geometry" />
        </mxCell>
        <mxCell id="Jv5b99Ny6Am5q-5sL5hU-159" style="edgeStyle=orthogonalEdgeStyle;rounded=0;orthogonalLoop=1;jettySize=auto;html=1;exitX=0;exitY=0.5;exitDx=0;exitDy=0;exitPerimeter=0;entryX=0.25;entryY=1;entryDx=0;entryDy=0;" parent="1" source="Jv5b99Ny6Am5q-5sL5hU-161" target="Jv5b99Ny6Am5q-5sL5hU-149" edge="1">
          <mxGeometry relative="1" as="geometry">
            <Array as="points">
              <mxPoint x="1089.94" y="1515" />
              <mxPoint x="1089.94" y="1460" />
              <mxPoint x="1119.94" y="1460" />
            </Array>
          </mxGeometry>
        </mxCell>
        <mxCell id="Jv5b99Ny6Am5q-5sL5hU-160" value="Not Success" style="edgeLabel;html=1;align=center;verticalAlign=middle;resizable=0;points=[];" parent="Jv5b99Ny6Am5q-5sL5hU-159" vertex="1" connectable="0">
          <mxGeometry x="-0.4023" y="2" relative="1" as="geometry">
            <mxPoint as="offset" />
          </mxGeometry>
        </mxCell>
        <mxCell id="Jv5b99Ny6Am5q-5sL5hU-161" value="Updated?" style="strokeWidth=2;html=1;shape=mxgraph.flowchart.decision;whiteSpace=wrap;" parent="1" vertex="1">
          <mxGeometry x="1090.94" y="1480" width="129" height="70" as="geometry" />
        </mxCell>
        <mxCell id="Jv5b99Ny6Am5q-5sL5hU-162" style="edgeStyle=orthogonalEdgeStyle;rounded=0;orthogonalLoop=1;jettySize=auto;html=1;exitX=0.546;exitY=1;exitDx=0;exitDy=0;entryX=0.5;entryY=0;entryDx=0;entryDy=0;entryPerimeter=0;exitPerimeter=0;" parent="1" source="Jv5b99Ny6Am5q-5sL5hU-149" target="Jv5b99Ny6Am5q-5sL5hU-161" edge="1">
          <mxGeometry relative="1" as="geometry">
            <mxPoint x="1149.94" y="1480" as="targetPoint" />
          </mxGeometry>
        </mxCell>
        <mxCell id="Jv5b99Ny6Am5q-5sL5hU-163" value="Update Data" style="shape=parallelogram;html=1;strokeWidth=2;perimeter=parallelogramPerimeter;whiteSpace=wrap;rounded=1;arcSize=12;size=0.23;" parent="1" vertex="1">
          <mxGeometry x="1099.94" y="1590" width="100" height="60" as="geometry" />
        </mxCell>
        <mxCell id="Jv5b99Ny6Am5q-5sL5hU-164" style="edgeStyle=orthogonalEdgeStyle;rounded=0;orthogonalLoop=1;jettySize=auto;html=1;exitX=0.5;exitY=1;exitDx=0;exitDy=0;exitPerimeter=0;entryX=0.551;entryY=0.009;entryDx=0;entryDy=0;entryPerimeter=0;" parent="1" source="Jv5b99Ny6Am5q-5sL5hU-161" target="Jv5b99Ny6Am5q-5sL5hU-163" edge="1">
          <mxGeometry relative="1" as="geometry" />
        </mxCell>
        <mxCell id="Jv5b99Ny6Am5q-5sL5hU-165" value="&lt;span style=&quot;caret-color: rgba(0, 0, 0, 0); color: rgba(0, 0, 0, 0); font-family: monospace; font-size: 0px; text-align: start; background-color: rgb(251, 251, 251);&quot;&gt;%3CmxGraphModel%3E%3Croot%3E%3CmxCell%20id%3D%220%22%2F%3E%3CmxCell%20id%3D%221%22%20parent%3D%220%22%2F%3E%3CmxCell%20id%3D%222%22%20value%3D%22Has%20Privileges%3F%22%20style%3D%22edgeLabel%3Bhtml%3D1%3Balign%3Dcenter%3BverticalAlign%3Dmiddle%3Bresizable%3D0%3Bpoints%3D%5B%5D%3B%22%20vertex%3D%221%22%20connectable%3D%220%22%20parent%3D%221%22%3E%3CmxGeometry%20x%3D%22201.0000000000001%22%20y%3D%22905.8620689655172%22%20as%3D%22geometry%22%2F%3E%3C%2FmxCell%3E%3C%2Froot%3E%3C%2FmxGraphModel%3E&lt;/span&gt;" style="edgeLabel;html=1;align=center;verticalAlign=middle;resizable=0;points=[];" parent="Jv5b99Ny6Am5q-5sL5hU-164" vertex="1" connectable="0">
          <mxGeometry x="-0.2993" y="3" relative="1" as="geometry">
            <mxPoint as="offset" />
          </mxGeometry>
        </mxCell>
        <mxCell id="Jv5b99Ny6Am5q-5sL5hU-166" value="Success" style="edgeLabel;html=1;align=center;verticalAlign=middle;resizable=0;points=[];" parent="Jv5b99Ny6Am5q-5sL5hU-164" vertex="1" connectable="0">
          <mxGeometry x="-0.2322" y="-2" relative="1" as="geometry">
            <mxPoint x="4" as="offset" />
          </mxGeometry>
        </mxCell>
        <mxCell id="Jv5b99Ny6Am5q-5sL5hU-167" style="edgeStyle=orthogonalEdgeStyle;rounded=0;orthogonalLoop=1;jettySize=auto;html=1;exitX=0;exitY=0.5;exitDx=0;exitDy=0;exitPerimeter=0;entryX=0.25;entryY=1;entryDx=0;entryDy=0;" parent="1" source="Jv5b99Ny6Am5q-5sL5hU-169" target="Jv5b99Ny6Am5q-5sL5hU-150" edge="1">
          <mxGeometry relative="1" as="geometry">
            <Array as="points">
              <mxPoint x="1229.94" y="1460" />
              <mxPoint x="1249.94" y="1460" />
            </Array>
          </mxGeometry>
        </mxCell>
        <mxCell id="Jv5b99Ny6Am5q-5sL5hU-168" value="Not Success" style="edgeLabel;html=1;align=center;verticalAlign=middle;resizable=0;points=[];" parent="Jv5b99Ny6Am5q-5sL5hU-167" vertex="1" connectable="0">
          <mxGeometry x="-0.4272" y="1" relative="1" as="geometry">
            <mxPoint as="offset" />
          </mxGeometry>
        </mxCell>
        <mxCell id="Jv5b99Ny6Am5q-5sL5hU-169" value="Deleted?" style="strokeWidth=2;html=1;shape=mxgraph.flowchart.decision;whiteSpace=wrap;" parent="1" vertex="1">
          <mxGeometry x="1229.94" y="1480" width="129" height="70" as="geometry" />
        </mxCell>
        <mxCell id="Jv5b99Ny6Am5q-5sL5hU-170" style="edgeStyle=orthogonalEdgeStyle;rounded=0;orthogonalLoop=1;jettySize=auto;html=1;exitX=0.5;exitY=1;exitDx=0;exitDy=0;entryX=0.5;entryY=0;entryDx=0;entryDy=0;entryPerimeter=0;" parent="1" source="Jv5b99Ny6Am5q-5sL5hU-150" target="Jv5b99Ny6Am5q-5sL5hU-169" edge="1">
          <mxGeometry relative="1" as="geometry">
            <Array as="points">
              <mxPoint x="1294.94" y="1440" />
              <mxPoint x="1294.94" y="1460" />
            </Array>
          </mxGeometry>
        </mxCell>
        <mxCell id="Jv5b99Ny6Am5q-5sL5hU-171" value="Delete Data" style="shape=parallelogram;html=1;strokeWidth=2;perimeter=parallelogramPerimeter;whiteSpace=wrap;rounded=1;arcSize=12;size=0.23;" parent="1" vertex="1">
          <mxGeometry x="1239.94" y="1590" width="100" height="60" as="geometry" />
        </mxCell>
        <mxCell id="Jv5b99Ny6Am5q-5sL5hU-172" style="edgeStyle=orthogonalEdgeStyle;rounded=0;orthogonalLoop=1;jettySize=auto;html=1;exitX=0.5;exitY=1;exitDx=0;exitDy=0;exitPerimeter=0;entryX=0.553;entryY=-0.011;entryDx=0;entryDy=0;entryPerimeter=0;" parent="1" source="Jv5b99Ny6Am5q-5sL5hU-169" target="Jv5b99Ny6Am5q-5sL5hU-171" edge="1">
          <mxGeometry relative="1" as="geometry" />
        </mxCell>
        <mxCell id="Jv5b99Ny6Am5q-5sL5hU-173" value="Success" style="edgeLabel;html=1;align=center;verticalAlign=middle;resizable=0;points=[];" parent="Jv5b99Ny6Am5q-5sL5hU-172" vertex="1" connectable="0">
          <mxGeometry x="-0.2028" relative="1" as="geometry">
            <mxPoint as="offset" />
          </mxGeometry>
        </mxCell>
        <mxCell id="Jv5b99Ny6Am5q-5sL5hU-174" style="edgeStyle=orthogonalEdgeStyle;rounded=0;orthogonalLoop=1;jettySize=auto;html=1;exitX=0.5;exitY=1;exitDx=0;exitDy=0;exitPerimeter=0;entryX=0.5;entryY=0;entryDx=0;entryDy=0;" parent="1" source="Jv5b99Ny6Am5q-5sL5hU-176" target="Jv5b99Ny6Am5q-5sL5hU-180" edge="1">
          <mxGeometry relative="1" as="geometry" />
        </mxCell>
        <mxCell id="Jv5b99Ny6Am5q-5sL5hU-175" value="Success" style="edgeLabel;html=1;align=center;verticalAlign=middle;resizable=0;points=[];" parent="Jv5b99Ny6Am5q-5sL5hU-174" vertex="1" connectable="0">
          <mxGeometry x="-0.0759" relative="1" as="geometry">
            <mxPoint as="offset" />
          </mxGeometry>
        </mxCell>
        <mxCell id="Jv5b99Ny6Am5q-5sL5hU-176" value="Inserted" style="strokeWidth=2;html=1;shape=mxgraph.flowchart.decision;whiteSpace=wrap;" parent="1" vertex="1">
          <mxGeometry x="1369.94" y="1480" width="129" height="70" as="geometry" />
        </mxCell>
        <mxCell id="Jv5b99Ny6Am5q-5sL5hU-177" style="edgeStyle=orthogonalEdgeStyle;rounded=0;orthogonalLoop=1;jettySize=auto;html=1;exitX=0.75;exitY=1;exitDx=0;exitDy=0;entryX=0.5;entryY=0;entryDx=0;entryDy=0;entryPerimeter=0;" parent="1" source="Jv5b99Ny6Am5q-5sL5hU-151" target="Jv5b99Ny6Am5q-5sL5hU-176" edge="1">
          <mxGeometry relative="1" as="geometry">
            <Array as="points">
              <mxPoint x="1434.94" y="1440" />
              <mxPoint x="1434.94" y="1460" />
              <mxPoint x="1434.94" y="1460" />
            </Array>
          </mxGeometry>
        </mxCell>
        <mxCell id="Jv5b99Ny6Am5q-5sL5hU-178" style="edgeStyle=orthogonalEdgeStyle;rounded=0;orthogonalLoop=1;jettySize=auto;html=1;exitX=0;exitY=0.5;exitDx=0;exitDy=0;exitPerimeter=0;entryX=0.347;entryY=0.98;entryDx=0;entryDy=0;entryPerimeter=0;" parent="1" source="Jv5b99Ny6Am5q-5sL5hU-176" target="Jv5b99Ny6Am5q-5sL5hU-151" edge="1">
          <mxGeometry relative="1" as="geometry">
            <Array as="points">
              <mxPoint x="1369.94" y="1460" />
              <mxPoint x="1391.94" y="1460" />
            </Array>
          </mxGeometry>
        </mxCell>
        <mxCell id="Jv5b99Ny6Am5q-5sL5hU-179" value="Not Success" style="edgeLabel;html=1;align=center;verticalAlign=middle;resizable=0;points=[];" parent="Jv5b99Ny6Am5q-5sL5hU-178" vertex="1" connectable="0">
          <mxGeometry x="-0.5" y="1" relative="1" as="geometry">
            <mxPoint y="-6" as="offset" />
          </mxGeometry>
        </mxCell>
        <mxCell id="Jv5b99Ny6Am5q-5sL5hU-180" value="Insert Data&lt;div&gt;To Table&lt;/div&gt;" style="shape=parallelogram;html=1;strokeWidth=2;perimeter=parallelogramPerimeter;whiteSpace=wrap;rounded=1;arcSize=12;size=0.23;" parent="1" vertex="1">
          <mxGeometry x="1384.44" y="1590" width="100" height="60" as="geometry" />
        </mxCell>
        <mxCell id="Jv5b99Ny6Am5q-5sL5hU-181" value="View donor phones " style="rounded=1;whiteSpace=wrap;html=1;" parent="1" vertex="1">
          <mxGeometry x="1629.94" y="1390" width="120" height="60" as="geometry" />
        </mxCell>
        <mxCell id="Jv5b99Ny6Am5q-5sL5hU-182" value="update a donor phone" style="rounded=1;whiteSpace=wrap;html=1;" parent="1" vertex="1">
          <mxGeometry x="1759.94" y="1390" width="120" height="60" as="geometry" />
        </mxCell>
        <mxCell id="Jv5b99Ny6Am5q-5sL5hU-183" value="Delete a donor phone" style="rounded=1;whiteSpace=wrap;html=1;" parent="1" vertex="1">
          <mxGeometry x="1889.94" y="1390" width="120" height="60" as="geometry" />
        </mxCell>
        <mxCell id="Jv5b99Ny6Am5q-5sL5hU-184" value="add a new phone number to a donor " style="rounded=1;whiteSpace=wrap;html=1;" parent="1" vertex="1">
          <mxGeometry x="2019.94" y="1390" width="120" height="60" as="geometry" />
        </mxCell>
        <mxCell id="Jv5b99Ny6Am5q-5sL5hU-185" style="edgeStyle=orthogonalEdgeStyle;rounded=0;orthogonalLoop=1;jettySize=auto;html=1;exitX=0.5;exitY=1;exitDx=0;exitDy=0;exitPerimeter=0;entryX=0.5;entryY=0;entryDx=0;entryDy=0;" parent="1" source="Jv5b99Ny6Am5q-5sL5hU-189" target="Jv5b99Ny6Am5q-5sL5hU-191" edge="1">
          <mxGeometry relative="1" as="geometry">
            <mxPoint x="1690.2929411764708" y="1590" as="targetPoint" />
          </mxGeometry>
        </mxCell>
        <mxCell id="Jv5b99Ny6Am5q-5sL5hU-186" value="Success" style="edgeLabel;html=1;align=center;verticalAlign=middle;resizable=0;points=[];" parent="Jv5b99Ny6Am5q-5sL5hU-185" vertex="1" connectable="0">
          <mxGeometry x="-0.2138" y="1" relative="1" as="geometry">
            <mxPoint as="offset" />
          </mxGeometry>
        </mxCell>
        <mxCell id="Jv5b99Ny6Am5q-5sL5hU-187" style="edgeStyle=orthogonalEdgeStyle;rounded=0;orthogonalLoop=1;jettySize=auto;html=1;exitX=0;exitY=0.5;exitDx=0;exitDy=0;exitPerimeter=0;entryX=0;entryY=0.5;entryDx=0;entryDy=0;" parent="1" source="Jv5b99Ny6Am5q-5sL5hU-189" target="Jv5b99Ny6Am5q-5sL5hU-181" edge="1">
          <mxGeometry relative="1" as="geometry">
            <Array as="points">
              <mxPoint x="1599.94" y="1525" />
              <mxPoint x="1599.94" y="1420" />
            </Array>
          </mxGeometry>
        </mxCell>
        <mxCell id="Jv5b99Ny6Am5q-5sL5hU-188" value="Not Success" style="edgeLabel;html=1;align=center;verticalAlign=middle;resizable=0;points=[];" parent="Jv5b99Ny6Am5q-5sL5hU-187" vertex="1" connectable="0">
          <mxGeometry x="0.1124" relative="1" as="geometry">
            <mxPoint y="9" as="offset" />
          </mxGeometry>
        </mxCell>
        <mxCell id="Jv5b99Ny6Am5q-5sL5hU-189" value="Viewed?" style="strokeWidth=2;html=1;shape=mxgraph.flowchart.decision;whiteSpace=wrap;" parent="1" vertex="1">
          <mxGeometry x="1625.44" y="1490" width="129" height="70" as="geometry" />
        </mxCell>
        <mxCell id="Jv5b99Ny6Am5q-5sL5hU-190" style="edgeStyle=orthogonalEdgeStyle;rounded=0;orthogonalLoop=1;jettySize=auto;html=1;exitX=0.5;exitY=1;exitDx=0;exitDy=0;entryX=0.5;entryY=0;entryDx=0;entryDy=0;entryPerimeter=0;" parent="1" source="Jv5b99Ny6Am5q-5sL5hU-181" target="Jv5b99Ny6Am5q-5sL5hU-189" edge="1">
          <mxGeometry relative="1" as="geometry" />
        </mxCell>
        <mxCell id="Jv5b99Ny6Am5q-5sL5hU-191" value="Show Data&amp;nbsp;&lt;div&gt;To User&lt;/div&gt;" style="shape=parallelogram;html=1;strokeWidth=2;perimeter=parallelogramPerimeter;whiteSpace=wrap;rounded=1;arcSize=12;size=0.23;" parent="1" vertex="1">
          <mxGeometry x="1639.94" y="1600" width="100" height="60" as="geometry" />
        </mxCell>
        <mxCell id="Jv5b99Ny6Am5q-5sL5hU-192" style="edgeStyle=orthogonalEdgeStyle;rounded=0;orthogonalLoop=1;jettySize=auto;html=1;exitX=0;exitY=0.5;exitDx=0;exitDy=0;exitPerimeter=0;entryX=0.25;entryY=1;entryDx=0;entryDy=0;" parent="1" source="Jv5b99Ny6Am5q-5sL5hU-194" target="Jv5b99Ny6Am5q-5sL5hU-182" edge="1">
          <mxGeometry relative="1" as="geometry">
            <Array as="points">
              <mxPoint x="1759.94" y="1525" />
              <mxPoint x="1759.94" y="1470" />
              <mxPoint x="1789.94" y="1470" />
            </Array>
          </mxGeometry>
        </mxCell>
        <mxCell id="Jv5b99Ny6Am5q-5sL5hU-193" value="Not Success" style="edgeLabel;html=1;align=center;verticalAlign=middle;resizable=0;points=[];" parent="Jv5b99Ny6Am5q-5sL5hU-192" vertex="1" connectable="0">
          <mxGeometry x="-0.4023" y="2" relative="1" as="geometry">
            <mxPoint as="offset" />
          </mxGeometry>
        </mxCell>
        <mxCell id="Jv5b99Ny6Am5q-5sL5hU-194" value="Updated?" style="strokeWidth=2;html=1;shape=mxgraph.flowchart.decision;whiteSpace=wrap;" parent="1" vertex="1">
          <mxGeometry x="1760.94" y="1490" width="129" height="70" as="geometry" />
        </mxCell>
        <mxCell id="Jv5b99Ny6Am5q-5sL5hU-195" style="edgeStyle=orthogonalEdgeStyle;rounded=0;orthogonalLoop=1;jettySize=auto;html=1;exitX=0.546;exitY=1;exitDx=0;exitDy=0;entryX=0.5;entryY=0;entryDx=0;entryDy=0;entryPerimeter=0;exitPerimeter=0;" parent="1" source="Jv5b99Ny6Am5q-5sL5hU-182" target="Jv5b99Ny6Am5q-5sL5hU-194" edge="1">
          <mxGeometry relative="1" as="geometry">
            <mxPoint x="1819.94" y="1490" as="targetPoint" />
          </mxGeometry>
        </mxCell>
        <mxCell id="Jv5b99Ny6Am5q-5sL5hU-196" value="Update Data" style="shape=parallelogram;html=1;strokeWidth=2;perimeter=parallelogramPerimeter;whiteSpace=wrap;rounded=1;arcSize=12;size=0.23;" parent="1" vertex="1">
          <mxGeometry x="1769.94" y="1600" width="100" height="60" as="geometry" />
        </mxCell>
        <mxCell id="Jv5b99Ny6Am5q-5sL5hU-197" style="edgeStyle=orthogonalEdgeStyle;rounded=0;orthogonalLoop=1;jettySize=auto;html=1;exitX=0.5;exitY=1;exitDx=0;exitDy=0;exitPerimeter=0;entryX=0.551;entryY=0.009;entryDx=0;entryDy=0;entryPerimeter=0;" parent="1" source="Jv5b99Ny6Am5q-5sL5hU-194" target="Jv5b99Ny6Am5q-5sL5hU-196" edge="1">
          <mxGeometry relative="1" as="geometry" />
        </mxCell>
        <mxCell id="Jv5b99Ny6Am5q-5sL5hU-198" value="&lt;span style=&quot;caret-color: rgba(0, 0, 0, 0); color: rgba(0, 0, 0, 0); font-family: monospace; font-size: 0px; text-align: start; background-color: rgb(251, 251, 251);&quot;&gt;%3CmxGraphModel%3E%3Croot%3E%3CmxCell%20id%3D%220%22%2F%3E%3CmxCell%20id%3D%221%22%20parent%3D%220%22%2F%3E%3CmxCell%20id%3D%222%22%20value%3D%22Has%20Privileges%3F%22%20style%3D%22edgeLabel%3Bhtml%3D1%3Balign%3Dcenter%3BverticalAlign%3Dmiddle%3Bresizable%3D0%3Bpoints%3D%5B%5D%3B%22%20vertex%3D%221%22%20connectable%3D%220%22%20parent%3D%221%22%3E%3CmxGeometry%20x%3D%22201.0000000000001%22%20y%3D%22905.8620689655172%22%20as%3D%22geometry%22%2F%3E%3C%2FmxCell%3E%3C%2Froot%3E%3C%2FmxGraphModel%3E&lt;/span&gt;" style="edgeLabel;html=1;align=center;verticalAlign=middle;resizable=0;points=[];" parent="Jv5b99Ny6Am5q-5sL5hU-197" vertex="1" connectable="0">
          <mxGeometry x="-0.2993" y="3" relative="1" as="geometry">
            <mxPoint as="offset" />
          </mxGeometry>
        </mxCell>
        <mxCell id="Jv5b99Ny6Am5q-5sL5hU-199" value="Success" style="edgeLabel;html=1;align=center;verticalAlign=middle;resizable=0;points=[];" parent="Jv5b99Ny6Am5q-5sL5hU-197" vertex="1" connectable="0">
          <mxGeometry x="-0.2322" y="-2" relative="1" as="geometry">
            <mxPoint x="4" as="offset" />
          </mxGeometry>
        </mxCell>
        <mxCell id="Jv5b99Ny6Am5q-5sL5hU-200" style="edgeStyle=orthogonalEdgeStyle;rounded=0;orthogonalLoop=1;jettySize=auto;html=1;exitX=0;exitY=0.5;exitDx=0;exitDy=0;exitPerimeter=0;entryX=0.25;entryY=1;entryDx=0;entryDy=0;" parent="1" source="Jv5b99Ny6Am5q-5sL5hU-202" target="Jv5b99Ny6Am5q-5sL5hU-183" edge="1">
          <mxGeometry relative="1" as="geometry">
            <Array as="points">
              <mxPoint x="1899.94" y="1470" />
              <mxPoint x="1919.94" y="1470" />
            </Array>
          </mxGeometry>
        </mxCell>
        <mxCell id="Jv5b99Ny6Am5q-5sL5hU-201" value="Not Success" style="edgeLabel;html=1;align=center;verticalAlign=middle;resizable=0;points=[];" parent="Jv5b99Ny6Am5q-5sL5hU-200" vertex="1" connectable="0">
          <mxGeometry x="-0.4272" y="1" relative="1" as="geometry">
            <mxPoint as="offset" />
          </mxGeometry>
        </mxCell>
        <mxCell id="Jv5b99Ny6Am5q-5sL5hU-202" value="Deleted?" style="strokeWidth=2;html=1;shape=mxgraph.flowchart.decision;whiteSpace=wrap;" parent="1" vertex="1">
          <mxGeometry x="1899.94" y="1490" width="129" height="70" as="geometry" />
        </mxCell>
        <mxCell id="Jv5b99Ny6Am5q-5sL5hU-203" style="edgeStyle=orthogonalEdgeStyle;rounded=0;orthogonalLoop=1;jettySize=auto;html=1;exitX=0.5;exitY=1;exitDx=0;exitDy=0;entryX=0.5;entryY=0;entryDx=0;entryDy=0;entryPerimeter=0;" parent="1" source="Jv5b99Ny6Am5q-5sL5hU-183" target="Jv5b99Ny6Am5q-5sL5hU-202" edge="1">
          <mxGeometry relative="1" as="geometry">
            <Array as="points">
              <mxPoint x="1964.94" y="1450" />
              <mxPoint x="1964.94" y="1470" />
            </Array>
          </mxGeometry>
        </mxCell>
        <mxCell id="Jv5b99Ny6Am5q-5sL5hU-204" value="Delete Data" style="shape=parallelogram;html=1;strokeWidth=2;perimeter=parallelogramPerimeter;whiteSpace=wrap;rounded=1;arcSize=12;size=0.23;" parent="1" vertex="1">
          <mxGeometry x="1909.94" y="1600" width="100" height="60" as="geometry" />
        </mxCell>
        <mxCell id="Jv5b99Ny6Am5q-5sL5hU-205" style="edgeStyle=orthogonalEdgeStyle;rounded=0;orthogonalLoop=1;jettySize=auto;html=1;exitX=0.5;exitY=1;exitDx=0;exitDy=0;exitPerimeter=0;entryX=0.553;entryY=-0.011;entryDx=0;entryDy=0;entryPerimeter=0;" parent="1" source="Jv5b99Ny6Am5q-5sL5hU-202" target="Jv5b99Ny6Am5q-5sL5hU-204" edge="1">
          <mxGeometry relative="1" as="geometry" />
        </mxCell>
        <mxCell id="Jv5b99Ny6Am5q-5sL5hU-206" value="Success" style="edgeLabel;html=1;align=center;verticalAlign=middle;resizable=0;points=[];" parent="Jv5b99Ny6Am5q-5sL5hU-205" vertex="1" connectable="0">
          <mxGeometry x="-0.2028" relative="1" as="geometry">
            <mxPoint as="offset" />
          </mxGeometry>
        </mxCell>
        <mxCell id="Jv5b99Ny6Am5q-5sL5hU-207" style="edgeStyle=orthogonalEdgeStyle;rounded=0;orthogonalLoop=1;jettySize=auto;html=1;exitX=0.5;exitY=1;exitDx=0;exitDy=0;exitPerimeter=0;entryX=0.5;entryY=0;entryDx=0;entryDy=0;" parent="1" source="Jv5b99Ny6Am5q-5sL5hU-209" target="Jv5b99Ny6Am5q-5sL5hU-213" edge="1">
          <mxGeometry relative="1" as="geometry" />
        </mxCell>
        <mxCell id="Jv5b99Ny6Am5q-5sL5hU-208" value="Success" style="edgeLabel;html=1;align=center;verticalAlign=middle;resizable=0;points=[];" parent="Jv5b99Ny6Am5q-5sL5hU-207" vertex="1" connectable="0">
          <mxGeometry x="-0.0759" relative="1" as="geometry">
            <mxPoint as="offset" />
          </mxGeometry>
        </mxCell>
        <mxCell id="Jv5b99Ny6Am5q-5sL5hU-209" value="Inserted" style="strokeWidth=2;html=1;shape=mxgraph.flowchart.decision;whiteSpace=wrap;" parent="1" vertex="1">
          <mxGeometry x="2039.94" y="1490" width="129" height="70" as="geometry" />
        </mxCell>
        <mxCell id="Jv5b99Ny6Am5q-5sL5hU-210" style="edgeStyle=orthogonalEdgeStyle;rounded=0;orthogonalLoop=1;jettySize=auto;html=1;exitX=0.75;exitY=1;exitDx=0;exitDy=0;entryX=0.5;entryY=0;entryDx=0;entryDy=0;entryPerimeter=0;" parent="1" source="Jv5b99Ny6Am5q-5sL5hU-184" target="Jv5b99Ny6Am5q-5sL5hU-209" edge="1">
          <mxGeometry relative="1" as="geometry">
            <Array as="points">
              <mxPoint x="2104.94" y="1450" />
              <mxPoint x="2104.94" y="1470" />
              <mxPoint x="2104.94" y="1470" />
            </Array>
          </mxGeometry>
        </mxCell>
        <mxCell id="Jv5b99Ny6Am5q-5sL5hU-211" style="edgeStyle=orthogonalEdgeStyle;rounded=0;orthogonalLoop=1;jettySize=auto;html=1;exitX=0;exitY=0.5;exitDx=0;exitDy=0;exitPerimeter=0;entryX=0.347;entryY=0.98;entryDx=0;entryDy=0;entryPerimeter=0;" parent="1" source="Jv5b99Ny6Am5q-5sL5hU-209" target="Jv5b99Ny6Am5q-5sL5hU-184" edge="1">
          <mxGeometry relative="1" as="geometry">
            <Array as="points">
              <mxPoint x="2039.94" y="1470" />
              <mxPoint x="2061.94" y="1470" />
            </Array>
          </mxGeometry>
        </mxCell>
        <mxCell id="Jv5b99Ny6Am5q-5sL5hU-212" value="Not Success" style="edgeLabel;html=1;align=center;verticalAlign=middle;resizable=0;points=[];" parent="Jv5b99Ny6Am5q-5sL5hU-211" vertex="1" connectable="0">
          <mxGeometry x="-0.5" y="1" relative="1" as="geometry">
            <mxPoint y="-6" as="offset" />
          </mxGeometry>
        </mxCell>
        <mxCell id="Jv5b99Ny6Am5q-5sL5hU-213" value="Insert Data&lt;div&gt;To Table&lt;/div&gt;" style="shape=parallelogram;html=1;strokeWidth=2;perimeter=parallelogramPerimeter;whiteSpace=wrap;rounded=1;arcSize=12;size=0.23;" parent="1" vertex="1">
          <mxGeometry x="2054.44" y="1600" width="100" height="60" as="geometry" />
        </mxCell>
        <mxCell id="Jv5b99Ny6Am5q-5sL5hU-214" value="View&amp;nbsp;donor_event Table" style="rounded=1;whiteSpace=wrap;html=1;" parent="1" vertex="1">
          <mxGeometry x="2229.94" y="1400" width="120" height="60" as="geometry" />
        </mxCell>
        <mxCell id="Jv5b99Ny6Am5q-5sL5hU-215" value="Update&amp;nbsp;donor_event Table Records" style="rounded=1;whiteSpace=wrap;html=1;" parent="1" vertex="1">
          <mxGeometry x="2359.94" y="1400" width="120" height="60" as="geometry" />
        </mxCell>
        <mxCell id="Jv5b99Ny6Am5q-5sL5hU-216" value="Delete donor_event&lt;div&gt;Table Records&lt;/div&gt;" style="rounded=1;whiteSpace=wrap;html=1;" parent="1" vertex="1">
          <mxGeometry x="2489.94" y="1400" width="120" height="60" as="geometry" />
        </mxCell>
        <mxCell id="Jv5b99Ny6Am5q-5sL5hU-217" value="Insert a new donor_event&amp;nbsp; recored " style="rounded=1;whiteSpace=wrap;html=1;" parent="1" vertex="1">
          <mxGeometry x="2619.94" y="1400" width="120" height="60" as="geometry" />
        </mxCell>
        <mxCell id="Jv5b99Ny6Am5q-5sL5hU-218" style="edgeStyle=orthogonalEdgeStyle;rounded=0;orthogonalLoop=1;jettySize=auto;html=1;exitX=0.5;exitY=1;exitDx=0;exitDy=0;exitPerimeter=0;entryX=0.5;entryY=0;entryDx=0;entryDy=0;" parent="1" source="Jv5b99Ny6Am5q-5sL5hU-222" target="Jv5b99Ny6Am5q-5sL5hU-224" edge="1">
          <mxGeometry relative="1" as="geometry">
            <mxPoint x="2290.292941176471" y="1600" as="targetPoint" />
          </mxGeometry>
        </mxCell>
        <mxCell id="Jv5b99Ny6Am5q-5sL5hU-219" value="Success" style="edgeLabel;html=1;align=center;verticalAlign=middle;resizable=0;points=[];" parent="Jv5b99Ny6Am5q-5sL5hU-218" vertex="1" connectable="0">
          <mxGeometry x="-0.2138" y="1" relative="1" as="geometry">
            <mxPoint as="offset" />
          </mxGeometry>
        </mxCell>
        <mxCell id="Jv5b99Ny6Am5q-5sL5hU-220" style="edgeStyle=orthogonalEdgeStyle;rounded=0;orthogonalLoop=1;jettySize=auto;html=1;exitX=0;exitY=0.5;exitDx=0;exitDy=0;exitPerimeter=0;entryX=0;entryY=0.5;entryDx=0;entryDy=0;" parent="1" source="Jv5b99Ny6Am5q-5sL5hU-222" target="Jv5b99Ny6Am5q-5sL5hU-214" edge="1">
          <mxGeometry relative="1" as="geometry">
            <Array as="points">
              <mxPoint x="2199.94" y="1535" />
              <mxPoint x="2199.94" y="1430" />
            </Array>
          </mxGeometry>
        </mxCell>
        <mxCell id="Jv5b99Ny6Am5q-5sL5hU-221" value="Not Success" style="edgeLabel;html=1;align=center;verticalAlign=middle;resizable=0;points=[];" parent="Jv5b99Ny6Am5q-5sL5hU-220" vertex="1" connectable="0">
          <mxGeometry x="0.1124" relative="1" as="geometry">
            <mxPoint y="9" as="offset" />
          </mxGeometry>
        </mxCell>
        <mxCell id="Jv5b99Ny6Am5q-5sL5hU-222" value="Viewed?" style="strokeWidth=2;html=1;shape=mxgraph.flowchart.decision;whiteSpace=wrap;" parent="1" vertex="1">
          <mxGeometry x="2225.44" y="1500" width="129" height="70" as="geometry" />
        </mxCell>
        <mxCell id="Jv5b99Ny6Am5q-5sL5hU-223" style="edgeStyle=orthogonalEdgeStyle;rounded=0;orthogonalLoop=1;jettySize=auto;html=1;exitX=0.5;exitY=1;exitDx=0;exitDy=0;entryX=0.5;entryY=0;entryDx=0;entryDy=0;entryPerimeter=0;" parent="1" source="Jv5b99Ny6Am5q-5sL5hU-214" target="Jv5b99Ny6Am5q-5sL5hU-222" edge="1">
          <mxGeometry relative="1" as="geometry" />
        </mxCell>
        <mxCell id="Jv5b99Ny6Am5q-5sL5hU-224" value="Show Data&amp;nbsp;&lt;div&gt;To User&lt;/div&gt;" style="shape=parallelogram;html=1;strokeWidth=2;perimeter=parallelogramPerimeter;whiteSpace=wrap;rounded=1;arcSize=12;size=0.23;" parent="1" vertex="1">
          <mxGeometry x="2239.94" y="1610" width="100" height="60" as="geometry" />
        </mxCell>
        <mxCell id="Jv5b99Ny6Am5q-5sL5hU-225" style="edgeStyle=orthogonalEdgeStyle;rounded=0;orthogonalLoop=1;jettySize=auto;html=1;exitX=0;exitY=0.5;exitDx=0;exitDy=0;exitPerimeter=0;entryX=0.25;entryY=1;entryDx=0;entryDy=0;" parent="1" source="Jv5b99Ny6Am5q-5sL5hU-227" target="Jv5b99Ny6Am5q-5sL5hU-215" edge="1">
          <mxGeometry relative="1" as="geometry">
            <Array as="points">
              <mxPoint x="2359.94" y="1535" />
              <mxPoint x="2359.94" y="1480" />
              <mxPoint x="2389.94" y="1480" />
            </Array>
          </mxGeometry>
        </mxCell>
        <mxCell id="Jv5b99Ny6Am5q-5sL5hU-226" value="Not Success" style="edgeLabel;html=1;align=center;verticalAlign=middle;resizable=0;points=[];" parent="Jv5b99Ny6Am5q-5sL5hU-225" vertex="1" connectable="0">
          <mxGeometry x="-0.4023" y="2" relative="1" as="geometry">
            <mxPoint as="offset" />
          </mxGeometry>
        </mxCell>
        <mxCell id="Jv5b99Ny6Am5q-5sL5hU-227" value="Updated?" style="strokeWidth=2;html=1;shape=mxgraph.flowchart.decision;whiteSpace=wrap;" parent="1" vertex="1">
          <mxGeometry x="2360.94" y="1500" width="129" height="70" as="geometry" />
        </mxCell>
        <mxCell id="Jv5b99Ny6Am5q-5sL5hU-228" style="edgeStyle=orthogonalEdgeStyle;rounded=0;orthogonalLoop=1;jettySize=auto;html=1;exitX=0.546;exitY=1;exitDx=0;exitDy=0;entryX=0.5;entryY=0;entryDx=0;entryDy=0;entryPerimeter=0;exitPerimeter=0;" parent="1" source="Jv5b99Ny6Am5q-5sL5hU-215" target="Jv5b99Ny6Am5q-5sL5hU-227" edge="1">
          <mxGeometry relative="1" as="geometry">
            <mxPoint x="2419.94" y="1500" as="targetPoint" />
          </mxGeometry>
        </mxCell>
        <mxCell id="Jv5b99Ny6Am5q-5sL5hU-229" value="Update Data" style="shape=parallelogram;html=1;strokeWidth=2;perimeter=parallelogramPerimeter;whiteSpace=wrap;rounded=1;arcSize=12;size=0.23;" parent="1" vertex="1">
          <mxGeometry x="2369.94" y="1610" width="100" height="60" as="geometry" />
        </mxCell>
        <mxCell id="Jv5b99Ny6Am5q-5sL5hU-230" style="edgeStyle=orthogonalEdgeStyle;rounded=0;orthogonalLoop=1;jettySize=auto;html=1;exitX=0.5;exitY=1;exitDx=0;exitDy=0;exitPerimeter=0;entryX=0.551;entryY=0.009;entryDx=0;entryDy=0;entryPerimeter=0;" parent="1" source="Jv5b99Ny6Am5q-5sL5hU-227" target="Jv5b99Ny6Am5q-5sL5hU-229" edge="1">
          <mxGeometry relative="1" as="geometry" />
        </mxCell>
        <mxCell id="Jv5b99Ny6Am5q-5sL5hU-231" value="&lt;span style=&quot;caret-color: rgba(0, 0, 0, 0); color: rgba(0, 0, 0, 0); font-family: monospace; font-size: 0px; text-align: start; background-color: rgb(251, 251, 251);&quot;&gt;%3CmxGraphModel%3E%3Croot%3E%3CmxCell%20id%3D%220%22%2F%3E%3CmxCell%20id%3D%221%22%20parent%3D%220%22%2F%3E%3CmxCell%20id%3D%222%22%20value%3D%22Has%20Privileges%3F%22%20style%3D%22edgeLabel%3Bhtml%3D1%3Balign%3Dcenter%3BverticalAlign%3Dmiddle%3Bresizable%3D0%3Bpoints%3D%5B%5D%3B%22%20vertex%3D%221%22%20connectable%3D%220%22%20parent%3D%221%22%3E%3CmxGeometry%20x%3D%22201.0000000000001%22%20y%3D%22905.8620689655172%22%20as%3D%22geometry%22%2F%3E%3C%2FmxCell%3E%3C%2Froot%3E%3C%2FmxGraphModel%3E&lt;/span&gt;" style="edgeLabel;html=1;align=center;verticalAlign=middle;resizable=0;points=[];" parent="Jv5b99Ny6Am5q-5sL5hU-230" vertex="1" connectable="0">
          <mxGeometry x="-0.2993" y="3" relative="1" as="geometry">
            <mxPoint as="offset" />
          </mxGeometry>
        </mxCell>
        <mxCell id="Jv5b99Ny6Am5q-5sL5hU-232" value="Success" style="edgeLabel;html=1;align=center;verticalAlign=middle;resizable=0;points=[];" parent="Jv5b99Ny6Am5q-5sL5hU-230" vertex="1" connectable="0">
          <mxGeometry x="-0.2322" y="-2" relative="1" as="geometry">
            <mxPoint x="4" as="offset" />
          </mxGeometry>
        </mxCell>
        <mxCell id="Jv5b99Ny6Am5q-5sL5hU-233" style="edgeStyle=orthogonalEdgeStyle;rounded=0;orthogonalLoop=1;jettySize=auto;html=1;exitX=0;exitY=0.5;exitDx=0;exitDy=0;exitPerimeter=0;entryX=0.25;entryY=1;entryDx=0;entryDy=0;" parent="1" source="Jv5b99Ny6Am5q-5sL5hU-235" target="Jv5b99Ny6Am5q-5sL5hU-216" edge="1">
          <mxGeometry relative="1" as="geometry">
            <Array as="points">
              <mxPoint x="2499.94" y="1480" />
              <mxPoint x="2519.94" y="1480" />
            </Array>
          </mxGeometry>
        </mxCell>
        <mxCell id="Jv5b99Ny6Am5q-5sL5hU-234" value="Not Success" style="edgeLabel;html=1;align=center;verticalAlign=middle;resizable=0;points=[];" parent="Jv5b99Ny6Am5q-5sL5hU-233" vertex="1" connectable="0">
          <mxGeometry x="-0.4272" y="1" relative="1" as="geometry">
            <mxPoint as="offset" />
          </mxGeometry>
        </mxCell>
        <mxCell id="Jv5b99Ny6Am5q-5sL5hU-235" value="Deleted?" style="strokeWidth=2;html=1;shape=mxgraph.flowchart.decision;whiteSpace=wrap;" parent="1" vertex="1">
          <mxGeometry x="2499.94" y="1500" width="129" height="70" as="geometry" />
        </mxCell>
        <mxCell id="Jv5b99Ny6Am5q-5sL5hU-236" style="edgeStyle=orthogonalEdgeStyle;rounded=0;orthogonalLoop=1;jettySize=auto;html=1;exitX=0.5;exitY=1;exitDx=0;exitDy=0;entryX=0.5;entryY=0;entryDx=0;entryDy=0;entryPerimeter=0;" parent="1" source="Jv5b99Ny6Am5q-5sL5hU-216" target="Jv5b99Ny6Am5q-5sL5hU-235" edge="1">
          <mxGeometry relative="1" as="geometry">
            <Array as="points">
              <mxPoint x="2564.94" y="1460" />
              <mxPoint x="2564.94" y="1480" />
            </Array>
          </mxGeometry>
        </mxCell>
        <mxCell id="Jv5b99Ny6Am5q-5sL5hU-237" value="Delete Data" style="shape=parallelogram;html=1;strokeWidth=2;perimeter=parallelogramPerimeter;whiteSpace=wrap;rounded=1;arcSize=12;size=0.23;" parent="1" vertex="1">
          <mxGeometry x="2509.94" y="1610" width="100" height="60" as="geometry" />
        </mxCell>
        <mxCell id="Jv5b99Ny6Am5q-5sL5hU-238" style="edgeStyle=orthogonalEdgeStyle;rounded=0;orthogonalLoop=1;jettySize=auto;html=1;exitX=0.5;exitY=1;exitDx=0;exitDy=0;exitPerimeter=0;entryX=0.553;entryY=-0.011;entryDx=0;entryDy=0;entryPerimeter=0;" parent="1" source="Jv5b99Ny6Am5q-5sL5hU-235" target="Jv5b99Ny6Am5q-5sL5hU-237" edge="1">
          <mxGeometry relative="1" as="geometry" />
        </mxCell>
        <mxCell id="Jv5b99Ny6Am5q-5sL5hU-239" value="Success" style="edgeLabel;html=1;align=center;verticalAlign=middle;resizable=0;points=[];" parent="Jv5b99Ny6Am5q-5sL5hU-238" vertex="1" connectable="0">
          <mxGeometry x="-0.2028" relative="1" as="geometry">
            <mxPoint as="offset" />
          </mxGeometry>
        </mxCell>
        <mxCell id="Jv5b99Ny6Am5q-5sL5hU-240" style="edgeStyle=orthogonalEdgeStyle;rounded=0;orthogonalLoop=1;jettySize=auto;html=1;exitX=0.5;exitY=1;exitDx=0;exitDy=0;exitPerimeter=0;entryX=0.5;entryY=0;entryDx=0;entryDy=0;" parent="1" source="Jv5b99Ny6Am5q-5sL5hU-242" target="Jv5b99Ny6Am5q-5sL5hU-246" edge="1">
          <mxGeometry relative="1" as="geometry" />
        </mxCell>
        <mxCell id="Jv5b99Ny6Am5q-5sL5hU-241" value="Success" style="edgeLabel;html=1;align=center;verticalAlign=middle;resizable=0;points=[];" parent="Jv5b99Ny6Am5q-5sL5hU-240" vertex="1" connectable="0">
          <mxGeometry x="-0.0759" relative="1" as="geometry">
            <mxPoint as="offset" />
          </mxGeometry>
        </mxCell>
        <mxCell id="Jv5b99Ny6Am5q-5sL5hU-242" value="Inserted" style="strokeWidth=2;html=1;shape=mxgraph.flowchart.decision;whiteSpace=wrap;" parent="1" vertex="1">
          <mxGeometry x="2639.94" y="1500" width="129" height="70" as="geometry" />
        </mxCell>
        <mxCell id="Jv5b99Ny6Am5q-5sL5hU-243" style="edgeStyle=orthogonalEdgeStyle;rounded=0;orthogonalLoop=1;jettySize=auto;html=1;exitX=0.75;exitY=1;exitDx=0;exitDy=0;entryX=0.5;entryY=0;entryDx=0;entryDy=0;entryPerimeter=0;" parent="1" source="Jv5b99Ny6Am5q-5sL5hU-217" target="Jv5b99Ny6Am5q-5sL5hU-242" edge="1">
          <mxGeometry relative="1" as="geometry">
            <Array as="points">
              <mxPoint x="2704.94" y="1460" />
              <mxPoint x="2704.94" y="1480" />
              <mxPoint x="2704.94" y="1480" />
            </Array>
          </mxGeometry>
        </mxCell>
        <mxCell id="Jv5b99Ny6Am5q-5sL5hU-244" style="edgeStyle=orthogonalEdgeStyle;rounded=0;orthogonalLoop=1;jettySize=auto;html=1;exitX=0;exitY=0.5;exitDx=0;exitDy=0;exitPerimeter=0;entryX=0.347;entryY=0.98;entryDx=0;entryDy=0;entryPerimeter=0;" parent="1" source="Jv5b99Ny6Am5q-5sL5hU-242" target="Jv5b99Ny6Am5q-5sL5hU-217" edge="1">
          <mxGeometry relative="1" as="geometry">
            <Array as="points">
              <mxPoint x="2639.94" y="1480" />
              <mxPoint x="2661.94" y="1480" />
            </Array>
          </mxGeometry>
        </mxCell>
        <mxCell id="Jv5b99Ny6Am5q-5sL5hU-245" value="Not Success" style="edgeLabel;html=1;align=center;verticalAlign=middle;resizable=0;points=[];" parent="Jv5b99Ny6Am5q-5sL5hU-244" vertex="1" connectable="0">
          <mxGeometry x="-0.5" y="1" relative="1" as="geometry">
            <mxPoint y="-6" as="offset" />
          </mxGeometry>
        </mxCell>
        <mxCell id="Jv5b99Ny6Am5q-5sL5hU-246" value="Insert Data&lt;div&gt;To Table&lt;/div&gt;" style="shape=parallelogram;html=1;strokeWidth=2;perimeter=parallelogramPerimeter;whiteSpace=wrap;rounded=1;arcSize=12;size=0.23;" parent="1" vertex="1">
          <mxGeometry x="2654.44" y="1610" width="100" height="60" as="geometry" />
        </mxCell>
        <mxCell id="Jv5b99Ny6Am5q-5sL5hU-249" style="edgeStyle=orthogonalEdgeStyle;rounded=0;orthogonalLoop=1;jettySize=auto;html=1;exitX=0.5;exitY=1;exitDx=0;exitDy=0;entryX=0.645;entryY=0.022;entryDx=0;entryDy=0;entryPerimeter=0;" parent="1" source="Jv5b99Ny6Am5q-5sL5hU-5" target="Jv5b99Ny6Am5q-5sL5hU-215" edge="1">
          <mxGeometry relative="1" as="geometry" />
        </mxCell>
        <mxCell id="Jv5b99Ny6Am5q-5sL5hU-267" style="edgeStyle=orthogonalEdgeStyle;rounded=0;orthogonalLoop=1;jettySize=auto;html=1;exitX=0.5;exitY=1;exitDx=0;exitDy=0;entryX=0.434;entryY=0;entryDx=0;entryDy=0;entryPerimeter=0;" parent="1" source="Jv5b99Ny6Am5q-5sL5hU-1" target="Jv5b99Ny6Am5q-5sL5hU-85" edge="1">
          <mxGeometry relative="1" as="geometry" />
        </mxCell>
        <mxCell id="Jv5b99Ny6Am5q-5sL5hU-268" style="edgeStyle=orthogonalEdgeStyle;rounded=0;orthogonalLoop=1;jettySize=auto;html=1;exitX=0.5;exitY=1;exitDx=0;exitDy=0;entryX=0.617;entryY=-0.006;entryDx=0;entryDy=0;entryPerimeter=0;" parent="1" source="Jv5b99Ny6Am5q-5sL5hU-7" target="Jv5b99Ny6Am5q-5sL5hU-16" edge="1">
          <mxGeometry relative="1" as="geometry" />
        </mxCell>
        <mxCell id="0I5nVtkLHuAJyikSTDQ9-7" style="edgeStyle=orthogonalEdgeStyle;rounded=0;orthogonalLoop=1;jettySize=auto;html=1;exitX=0.5;exitY=0;exitDx=0;exitDy=0;entryX=1;entryY=0.5;entryDx=0;entryDy=0;" edge="1" parent="1" source="0I5nVtkLHuAJyikSTDQ9-3" target="uVyE1awp81MWE-f0taGV-88">
          <mxGeometry relative="1" as="geometry" />
        </mxCell>
        <mxCell id="0I5nVtkLHuAJyikSTDQ9-3" value="views " style="rounded=0;whiteSpace=wrap;html=1;" vertex="1" parent="1">
          <mxGeometry x="890" y="310" width="120" height="60" as="geometry" />
        </mxCell>
        <mxCell id="0I5nVtkLHuAJyikSTDQ9-8" style="edgeStyle=orthogonalEdgeStyle;rounded=0;orthogonalLoop=1;jettySize=auto;html=1;exitX=0.5;exitY=1;exitDx=0;exitDy=0;entryX=1;entryY=0.25;entryDx=0;entryDy=0;" edge="1" parent="1" source="0I5nVtkLHuAJyikSTDQ9-4" target="uVyE1awp81MWE-f0taGV-88">
          <mxGeometry relative="1" as="geometry">
            <Array as="points">
              <mxPoint x="960" y="490" />
              <mxPoint x="1050" y="490" />
              <mxPoint x="1050" y="270" />
              <mxPoint x="685" y="270" />
            </Array>
          </mxGeometry>
        </mxCell>
        <mxCell id="0I5nVtkLHuAJyikSTDQ9-4" value="procedures " style="rounded=0;whiteSpace=wrap;html=1;" vertex="1" parent="1">
          <mxGeometry x="900" y="410" width="120" height="60" as="geometry" />
        </mxCell>
        <mxCell id="0I5nVtkLHuAJyikSTDQ9-6" style="edgeStyle=orthogonalEdgeStyle;rounded=0;orthogonalLoop=1;jettySize=auto;html=1;exitX=1;exitY=0.25;exitDx=0;exitDy=0;entryX=0.015;entryY=0.608;entryDx=0;entryDy=0;entryPerimeter=0;" edge="1" parent="1" source="uVyE1awp81MWE-f0taGV-11" target="0I5nVtkLHuAJyikSTDQ9-4">
          <mxGeometry relative="1" as="geometry" />
        </mxCell>
      </root>
    </mxGraphModel>
  </diagram>
</mxfile>
